<?xml version="1.0" encoding="utf-8"?>
<!-- Generator: Adobe Illustrator 23.1.1, SVG Export Plug-In . SVG Version: 6.00 Build 0)  -->
<svg version="1.1" id="Layer_1" xmlns="http://www.w3.org/2000/svg" xmlns:xlink="http://www.w3.org/1999/xlink" x="0px" y="0px"
	 viewBox="0 0 2880.3 1800.2" style="enable-background:new 0 0 2880.3 1800.2;" xml:space="preserve">
<style type="text/css">
	.st0{fill:#F7F7F7;}
	.st1{opacity:0.8;}
	.st2{fill:#305C56;}
	.st3{opacity:0.2;}
	.st4{fill:#62B9AD;}
	.st5{opacity:0.5;}
	.st6{fill:none;stroke:#305C56;stroke-width:2;stroke-miterlimit:10;}
</style>
<g id="BG">
</g>
<rect x="0" y="0" class="st0" width="2880.3" height="1800.2"/>
<g class="st1">
	<path class="st2" d="M111.4,1651.4c3.2,13.5,7.6,26.3,12.9,38c0.7,1.5,1.3,2.9,2,4.4c0.7,1.4,1.5,2.9,2.2,4.3
		c1.5,2.9,3,5.8,4.5,8.2l2.2,3.7l1.3,2.1l1.4,1.9c1.8,2.5,3.5,5.2,5.6,7.3c7.8,9.2,17,16,26.4,20.3c9.5,4.3,19.2,6.3,28.5,6.1
		c9.3-0.1,18.1-2.3,26.1-5.8c1.9-1,3.9-2,5.8-2.9c1.9-1.1,3.7-2.4,5.5-3.5c1.9-1.2,3.3-2.5,4.9-3.7c0.8-0.6,1.5-1.3,2.3-1.9l0.6-0.5
		c-0.1,0,0.4-0.3,0.4-0.4l0.3-0.3l1.1-1.2c3.1-3.1,5.6-6.7,7.5-10.5s3.4-7.8,4.2-11.9c1.9-8,1.5-16-0.1-22.9
		c-0.9-3.4-1.9-6.6-3.3-9.5c-0.4-0.7-0.7-1.5-1-2.2c-0.4-0.6-0.7-1.2-1.1-1.8s-0.6-1.1-1.1-1.9c-0.5-0.6-0.9-1.2-1.4-1.7
		c-3.7-4.5-8.6-6.4-12.7-6.4c-0.5,0-1-0.1-1.6,0c-0.5,0.1-1,0.2-1.5,0.3c-1,0.2-1.9,0.3-2.8,0.8c-0.9,0.4-1.8,0.8-2.5,1.2
		c-0.7,0.5-1.3,1-1.9,1.5c-2.9,2.1-4,5.4-4.2,8s0.5,4.5,0.9,5.7c0.5,1,0.8,1.5,0.8,1.5c0.1,0.2,0.4,0.3,0.6,0.2s0.3-0.5,0.2-0.7
		c0,0-0.2-0.5-0.7-1.6c-0.3-1-0.8-2.6-0.4-4.8c0.3-2.1,1.4-4.7,3.8-6.1c0.6-0.4,1.3-0.8,2-1.3c0.7-0.3,1.4-0.5,2.1-0.7
		c0.7-0.3,1.5-0.3,2.4-0.4c0.4,0,0.8-0.1,1.3-0.1c0.4,0,0.9,0.1,1.3,0.1c3.5,0.3,7.3,2.2,10.1,6.1c0.3,0.5,0.7,1,1,1.4
		c0.2,0.4,0.6,1.2,0.9,1.7c0.3,0.6,0.6,1.3,1,1.9c0.2,0.6,0.5,1.2,0.7,1.9c1,2.5,1.8,5.5,2.3,8.4c0.9,6,0.9,12.9-1.1,19.4
		c-0.9,3.3-2.3,6.5-4.1,9.5c-1.7,3-4,5.7-6.5,8l-1,0.9l-0.2,0.2c-0.1,0.1,0.1-0.1-0.1,0.1l-0.6,0.4c-0.8,0.6-1.6,1.1-2.3,1.7
		c-1.6,1.1-3.2,2.4-4.7,3.2c-1.6,0.9-3.1,1.8-4.8,2.7c-1.7,0.7-3.4,1.5-5.2,2.3c-7.1,2.6-14.9,4-23,3.6
		c-16.1-0.7-33.3-9.1-45.5-25.3c-1.6-1.9-2.9-4.2-4.4-6.3l-1.1-1.6l-0.9-1.7l-2.1-3.9c-1.5-2.6-2.6-5.1-3.8-7.6l-1.8-3.8l-1.6-4
		c-4.4-10.8-7.9-22.5-10.4-34.9c-5-24.7-5.8-52-0.9-79c4.9-26.9,15.6-53.4,32.9-73.9c8.7-10.1,18.9-18.7,30.2-25.1
		c11.3-6.4,23.7-10.9,36.7-13.4l4.9-0.9l0.6-0.1c0,0,0.8-0.1,0.2-0.1l1.3-0.1l2.7-0.3c3.5-0.4,7.1-0.7,10.7-1.1
		c3.3-0.1,6.7-0.1,10-0.2l5-0.1l5.2,0.3c3.5,0.2,7,0.4,10.5,0.5c3.5,0.4,7,0.8,10.5,1.2c3.5,0.3,7.1,0.9,10.6,1.5s7.1,1.1,10.7,1.7
		c28.5,5.5,57.3,14.6,86.2,25.8c28.9,11.2,58,24.3,87.1,38.8s58.4,29.8,87.9,45.8c29.5,15.9,59.3,32,89.7,47.4
		c15.3,7.5,30.7,14.9,46.5,21.4c7.9,3.3,15.9,6.4,24.1,9.1l6.1,2l1.7,0.5l1.5,0.4l3,0.8c4,1.1,8,2.2,12.2,3.2
		c16.6,3.9,33.3,6.7,50.3,7.2c8.5,0.4,17-0.1,25.5-0.9c8.5-1,16.9-2.6,25.2-5.1c13.2-3.9,25.9-10.4,37.2-19.4
		c16,13,32.8,23.8,50.3,31.4c24.3,10.5,49.7,14.9,73.6,11.9c23.9-2.6,45.9-13,63.4-27.9c8.7-7.5,16.4-16,22.7-25.3
		c6.3-9.3,11.3-19.2,15.1-29.3c7.7-20.1,9.8-40.9,8.5-58.9c-0.6-9-2.2-17.5-4.3-25.1s-4.6-14.5-7.5-20.5
		c-5.6-12.2-12-21.1-17.4-27.9c-5.5-6.7-10.2-11.2-13.4-14.1c-3.2-2.9-4.9-4.4-4.9-4.4c-0.4-0.4-1-0.3-1.4,0.1
		c-0.4,0.5-0.4,1.3,0,1.8l0,0c0,0,1.5,1.7,4.3,5c2.8,3.3,6.8,8.4,11.5,15.5c4.7,7,9.8,16.4,14.2,28.1c2.2,5.8,4.1,12.3,5.5,19.4
		c1.4,7.1,2.4,14.7,2.5,22.8c0.3,16.1-2.8,34-10.2,51.2c-3.7,8.6-8.4,16.9-14.2,24.7c-5.9,7.7-12.6,14.9-20.4,21.1
		c-15.5,12.4-34.8,20.5-55.8,22.7c-21,2.3-43.5-2-65.7-11.3c-14.4-6-28.6-14.4-42.5-24.4c10.5-12.2,18.7-27.1,23.6-43.3
		c5.8-18.9,7.6-39.1,6.2-58.6c-1.4-19.6-5.8-38.6-12.8-56s-16.7-33.3-28.7-45.9c-12-12.7-26.7-21.8-42.2-25.6l-2.9-0.7
		c-1.1-0.3-2-0.3-3-0.5c-1-0.1-1.9-0.3-2.9-0.4l-3-0.2c-4-0.3-8,0.1-12,0.8c-7.8,1.6-15.5,4.9-22,10.4s-12,12.7-15.6,21.1
		c-3.7,8.3-5.8,17.5-6.4,26.8c-1.2,18.5,2.6,36.7,8.4,53c5.9,16.4,13.8,31.4,22.6,45.1c17.8,26.9,37.2,51.1,58.5,71.5
		c3.1,2.9,6.2,5.6,9.4,8.3c-9.6,6.4-20,10.9-30.9,13.5c-7.7,1.9-15.5,3.1-23.5,3.6c-7.9,0.4-15.9,0.4-23.9-0.3
		c-15.9-1.2-31.9-4.7-47.4-9.1c-1.9-0.6-3.8-1.1-5.8-1.7l-6-1.9l-3-1l-1.5-0.5l-1.3-0.5l-5.7-2.1c-7.6-2.9-15.2-6.2-22.7-9.7
		c-15-7.1-29.9-15-44.7-23.1c-29.6-16.2-58.9-33.5-88.1-50.2c-29.3-16.6-58.5-33-88-48.1c-29.4-15-59-28.7-88.8-40.5
		c-29.8-11.6-60-20.7-90.2-26.3c-3.8-0.6-7.6-1.2-11.4-1.8l-5.7-0.9c-1.9-0.2-3.8-0.4-5.7-0.5c-3.8-0.3-7.6-0.7-11.4-1
		c-3.8-0.2-7.6-0.2-11.4-0.3l-5.7-0.1l-5.8,0.3c-3.9,0.2-7.8,0.3-11.5,0.6c-3.6,0.4-7.1,0.9-10.7,1.3l-2.7,0.3l-1.3,0.2
		c-1,0.1-0.7,0.1-1.1,0.2l-0.7,0.1l-5.6,1.2c-14.9,3.2-29.4,8.7-42.7,16.9c-13.3,8.1-25.3,18.8-35.3,31.2
		c-20,25.1-31.7,56.4-36.2,87C103.2,1594,105,1624.3,111.4,1651.4z M853.7,1573.1c-2.5-2.7-5-5.4-7.4-8.2c-2.5-2.8-4.9-5.5-7.4-8.5
		c-2.4-2.9-4.8-5.9-7.3-8.8c-2.3-3-4.7-6-6.9-9.1c-9-12.4-17.3-25.9-23.6-40.9c-3.1-7.5-5.6-15.4-7.5-23.5c-1.8-8.1-2.8-16.6-2.4-25
		c0.3-8.4,2-16.8,5.1-24.4c3-7.7,7.8-14.3,13.6-19.4c5.8-5.1,12.8-8.3,20-9.8c3.6-0.6,7.4-1,11-0.7l2.7,0.2c0.9,0.1,1.9,0.3,2.9,0.4
		c0.9,0.2,2,0.3,2.8,0.5l2.8,0.7c14.7,3.9,28.5,12.7,39.8,24.9c11.4,12.2,20.5,27.5,27,44.2c6.4,16.8,10.2,35.2,11.2,53.7
		c0.9,18.5-1.1,37.4-7,54.6c-5.3,15.7-13.7,29.6-24.5,40.5c-4.7-3.6-9.4-7.4-14-11.4C873.9,1594.1,863.6,1584,853.7,1573.1z"/>
</g>
<g class="st1">
	<path class="st2" d="M2784.9,140.8c-3.2-13.5-7.6-26.3-12.9-38c-0.7-1.5-1.3-2.9-2-4.4c-0.7-1.4-1.5-2.9-2.2-4.3
		c-1.5-2.9-3-5.8-4.5-8.2l-2.3-3.7l-1.3-2.1l-1.4-1.9c-1.8-2.5-3.5-5.2-5.6-7.3c-7.8-9.2-17-16-26.4-20.3
		c-9.5-4.3-19.2-6.3-28.5-6.1c-9.3,0.1-18.1,2.3-26.1,5.8c-1.9,1-3.9,2-5.8,2.9c-1.9,1.1-3.7,2.4-5.5,3.5c-1.9,1.2-3.3,2.5-4.9,3.7
		c-0.8,0.6-1.5,1.3-2.3,1.9l-0.6,0.5c0.1,0-0.4,0.3-0.4,0.4l-0.3,0.3l-1.1,1.2c-3.1,3.1-5.6,6.7-7.5,10.5c-1.9,3.8-3.4,7.8-4.2,11.9
		c-1.9,8-1.5,16,0.1,22.9c0.9,3.4,1.9,6.6,3.3,9.5c0.4,0.7,0.7,1.5,1,2.2c0.4,0.6,0.7,1.2,1.1,1.8s0.6,1.1,1.1,1.9
		c0.5,0.6,0.9,1.2,1.4,1.7c3.7,4.5,8.6,6.4,12.7,6.4c0.5,0,1,0.1,1.5,0s1-0.2,1.5-0.3c1-0.2,1.9-0.3,2.8-0.8
		c0.9-0.4,1.8-0.8,2.5-1.2c0.7-0.5,1.3-1,1.9-1.5c2.9-2.1,4.1-5.4,4.2-8c0.2-2.6-0.5-4.5-0.9-5.7c-0.6-1-0.8-1.5-0.8-1.5
		c-0.1-0.2-0.4-0.3-0.6-0.2s-0.3,0.5-0.2,0.7c0,0,0.2,0.5,0.7,1.6c0.3,1,0.8,2.6,0.4,4.8c-0.3,2.1-1.4,4.7-3.8,6.1
		c-0.6,0.4-1.3,0.8-2,1.3c-0.7,0.3-1.4,0.5-2.1,0.7c-0.7,0.3-1.5,0.3-2.4,0.4c-0.4,0-0.8,0.1-1.3,0.1c-0.4,0-0.9-0.1-1.3-0.1
		c-3.5-0.3-7.3-2.2-10.1-6.1c-0.3-0.5-0.7-1-1-1.4c-0.2-0.4-0.6-1.2-0.9-1.7c-0.3-0.6-0.6-1.3-1-1.9c-0.2-0.6-0.5-1.2-0.7-1.9
		c-1-2.5-1.8-5.5-2.3-8.4c-0.9-6-0.9-12.9,1.1-19.4c0.9-3.3,2.3-6.5,4.1-9.5c1.7-3,4-5.7,6.5-8l1-0.9l0.2-0.2
		c0.1-0.1-0.1,0.1,0.1-0.1l0.6-0.4c0.8-0.6,1.6-1.1,2.3-1.7c1.6-1.1,3.2-2.4,4.7-3.2c1.6-0.9,3.1-1.8,4.8-2.7
		c1.7-0.7,3.4-1.5,5.2-2.3c7.1-2.6,14.9-4,23-3.6c16.1,0.7,33.3,9.1,45.5,25.3c1.6,1.9,2.9,4.2,4.4,6.3l1.1,1.6l0.9,1.7l2.1,3.9
		c1.5,2.6,2.6,5.1,3.8,7.6l1.8,3.8l1.6,4c4.4,10.8,7.9,22.5,10.4,34.9c5,24.7,5.8,52,0.9,79c-4.9,26.9-15.6,53.4-32.9,73.9
		c-8.7,10.1-18.9,18.7-30.2,25.1s-23.7,10.9-36.7,13.4l-4.9,0.9l-0.6,0.1c0,0-0.8,0.1-0.2,0.1l-1.3,0.1l-2.7,0.3
		c-3.5,0.4-7.1,0.7-10.7,1.1c-3.3,0.1-6.7,0.1-10,0.2l-5,0.1l-5.2-0.3c-3.5-0.2-7-0.4-10.5-0.5c-3.5-0.4-7-0.8-10.5-1.2
		c-3.5-0.3-7.1-0.9-10.6-1.5s-7.1-1.1-10.7-1.7c-28.5-5.5-57.3-14.6-86.2-25.8c-28.9-11.2-58-24.3-87.1-38.8
		c-29.1-14.5-58.4-29.8-87.9-45.8c-29.5-15.9-59.3-32-89.7-47.4c-15.3-7.5-30.7-14.9-46.5-21.4c-7.9-3.3-15.9-6.4-24.1-9.1l-6.1-2
		l-1.7-0.5l-1.5-0.4l-3-0.8c-4-1.1-8-2.2-12.2-3.2c-16.6-3.9-33.3-6.7-50.3-7.2c-8.5-0.4-17,0.1-25.5,0.9c-8.5,1-16.9,2.7-25.2,5.1
		c-13.2,3.9-25.9,10.4-37.2,19.4c-16-13-32.8-23.8-50.3-31.4c-24.3-10.5-49.7-14.9-73.6-11.9c-23.9,2.6-45.9,13-63.4,27.9
		c-8.7,7.5-16.4,16-22.7,25.3c-6.3,9.3-11.3,19.2-15.1,29.3c-7.7,20.1-9.8,40.9-8.5,58.9c0.6,9,2.2,17.5,4.3,25.1
		c2.1,7.6,4.6,14.5,7.5,20.5c5.6,12.2,12,21.1,17.4,27.9c5.5,6.7,10.2,11.2,13.4,14.1c3.2,2.9,4.9,4.4,4.9,4.4
		c0.4,0.4,1,0.3,1.4-0.1c0.4-0.5,0.4-1.3,0-1.8l0,0c0,0-1.5-1.7-4.3-5s-6.8-8.4-11.5-15.5c-4.7-7-9.8-16.4-14.2-28.1
		c-2.2-5.8-4.1-12.3-5.5-19.4s-2.4-14.7-2.5-22.8c-0.3-16.1,2.8-34,10.2-51.2c3.7-8.6,8.4-16.9,14.2-24.7
		c5.9-7.7,12.6-14.9,20.4-21.1c15.5-12.4,34.8-20.5,55.8-22.7c21-2.3,43.5,2,65.7,11.3c14.4,6,28.6,14.4,42.5,24.4
		c-10.6,12.2-18.7,27.1-23.6,43.3c-5.8,18.9-7.6,39.1-6.2,58.6c1.4,19.6,5.8,38.6,12.8,56s16.7,33.3,28.7,45.9
		c12,12.7,26.7,21.8,42.2,25.6l2.9,0.7c1.1,0.3,2,0.3,3,0.5c1,0.1,1.9,0.3,2.9,0.4l3,0.2c4,0.3,8-0.1,12-0.8
		c7.8-1.6,15.5-4.9,22-10.4s12-12.7,15.6-21.1c3.7-8.3,5.8-17.5,6.4-26.8c1.2-18.5-2.6-36.7-8.4-53c-5.9-16.4-13.8-31.4-22.6-45.1
		c-17.8-26.9-37.2-51.1-58.5-71.5c-3.1-2.9-6.2-5.6-9.4-8.3c9.6-6.4,20-10.9,30.9-13.5c7.7-1.9,15.5-3.1,23.5-3.6
		c7.9-0.4,15.9-0.4,23.9,0.3c15.9,1.2,31.9,4.7,47.4,9.1c1.9,0.6,3.8,1.1,5.8,1.7l6,1.9l3,1l1.5,0.5l1.3,0.5l5.7,2.1
		c7.6,2.9,15.2,6.2,22.7,9.7c15,7.1,29.9,15,44.7,23.1c29.6,16.2,58.8,33.5,88.1,50.2c29.3,16.6,58.5,33,88,48.1
		c29.4,15,59,28.7,88.8,40.5c29.8,11.6,60,20.7,90.2,26.3c3.8,0.6,7.6,1.2,11.4,1.8l5.7,0.9c1.9,0.2,3.8,0.4,5.7,0.5
		c3.8,0.3,7.6,0.7,11.4,1c3.8,0.2,7.6,0.2,11.4,0.3l5.7,0.1l5.8-0.3c3.9-0.2,7.8-0.3,11.5-0.6c3.6-0.4,7.1-0.9,10.7-1.3l2.7-0.3
		l1.3-0.2c1-0.1,0.7-0.1,1.1-0.2l0.7-0.1l5.6-1.2c14.9-3.2,29.4-8.7,42.7-16.9c13.3-8.1,25.3-18.8,35.3-31.2
		c20-25.1,31.7-56.4,36.2-87C2793.1,198.1,2791.3,167.8,2784.9,140.8z M2042.7,219c2.5,2.7,5,5.4,7.4,8.2c2.4,2.8,4.9,5.5,7.4,8.5
		c2.4,2.9,4.8,5.9,7.3,8.8c2.3,3,4.7,6,6.9,9.1c9,12.4,17.3,25.9,23.6,40.9c3.1,7.5,5.6,15.4,7.5,23.5c1.8,8.1,2.8,16.6,2.4,25
		c-0.3,8.4-2,16.7-5.1,24.4c-3,7.7-7.8,14.3-13.6,19.4s-12.8,8.3-20,9.8c-3.6,0.6-7.4,1-11,0.7l-2.7-0.2c-0.9-0.1-1.9-0.3-2.9-0.4
		c-0.9-0.2-2-0.3-2.8-0.5l-2.8-0.7c-14.7-3.9-28.5-12.7-39.8-24.9c-11.4-12.2-20.5-27.5-27-44.2c-6.4-16.8-10.2-35.2-11.2-53.7
		c-0.9-18.5,1.1-37.4,7-54.6c5.3-15.7,13.7-29.6,24.5-40.5c4.7,3.6,9.4,7.4,14,11.4C2022.5,198.1,2032.7,208.1,2042.7,219z"/>
</g>
<g>
	<g class="st3">
		<g>
			<g>
				<path class="st4" d="M717.7,0c273.5,88.3,608,252.9,883,559.6l13.3-8.1C1349.5,256.5,1030.3,91.8,762,0H717.7z"/>
			</g>
			<path class="st4" d="M20.4,0c0,20.5,3.9,41.1,12.8,63.2c3.4,8,7.9,16.3,13.1,25c5.2,8.9,11.1,18,17.5,27.3
				c12.5,18.4,27.5,38.3,41.1,57.3c13.9,19.2,27.8,38.1,37.5,55.8c11,17.6,18.2,34.2,19.1,49.8c0,0,5.3-7.6,12.6-20.3
				c7.5-12.7,16.4-30,25.3-50c4.6-10.1,8.9-20.9,12.5-32c3.5-11.1,6.4-22.7,8.5-35c1.9-12.2,2.6-24.7,1.7-37.4
				c-1-13.1-3.6-26.3-8.5-39.5c-4.7-13.1-11.3-26.3-18.1-38.2c-5.1-9-10.9-17.5-17.1-25.7h-158V0z"/>
			<path class="st4" d="M270,0c0,10.1,0.5,20.6,1.7,31.3c2.4,24.3,9,49.6,22.1,74.2c4.6,8.8,10.6,17.8,17,27.2
				c6.2,9.4,13.1,19,20.5,28.8c14.8,19.6,31.3,40,46.8,60.3c29.6,40.8,54,82.1,53.4,114.7c0,0,24.2-28.7,42.2-73.4
				c4.5-11.2,8.6-23.4,11.9-36.3c3.4-13,5.8-26.7,6-40.6c1-28-3.3-58.1-16.5-87.6c-13.5-29.4-32.3-54.7-51.4-77.1
				c-6.5-7.5-13.2-14.6-19.8-21.4H270V0z"/>
			<path class="st4" d="M554.2,0c-1.3,4.5-2.4,9.3-3.4,14.4c-1.9,9.8-2.4,19.7-2.5,30.7c0,11,1.1,21.1,3.1,32.2
				c1.9,10.6,4.6,20.5,8.5,30.5c1.6,4.6,3.5,9.2,5.8,13.7c1.1,2.2,2.4,4.5,3.7,6.7c1.1,2.1,2.2,4,3.4,6.1c1.7,2.8,3.8,5.7,6.1,8.6
				c2.1,2.6,4.2,5.2,6.4,8c2,2.4,4.3,5,6.9,7.6c1.2,1.4,2.8,2.4,3.8,4.3c1,1.8,2,3.7,3,5.6c4.4,7.7,9,15.7,13.6,23.8
				c2.5,3.9,4.5,8.8,6.6,13.5s4.1,9.4,6.1,14.1c8.1,18.5,14.7,38.4,18.3,55.9c3.8,17.9,5.2,34.6,0.4,48.7c0,0,7.8-5.7,19.3-15.4
				c11.7-9.9,26.2-22.9,42-39.1c7.8-8.1,15.5-17,22.6-26.5s13.4-20.7,18.7-32.1c2.6-5.8,5-11.7,7-17.9c1.6-6.8,2.7-13.9,3.5-21.1
				c0.9-14.7,2.6-28.5-4.8-46.9c-12.3-35.6-32.7-56.1-52.5-74.3c-20-17.1-40.4-29.7-58.2-40.9c-5.6-3.4-10.8-6.7-15.8-10h-71.6V0z"
				/>
			<path class="st4" d="M840.6,49.1c0,0-1.9,6.7-4.8,17c-1.2,4.8-3.6,11.1-5.9,17.7c-1.1,3.3-2.3,6.6-3.5,10.1
				c-1.3,3.7-2.7,7.5-4.1,11.3c-10.6,30.8-22.3,68.5-12,109.6c7.5,29.1,28.6,66.4,43,104.2c14.5,37.4,22,76.1,5.5,98.6
				c0,0,8.8-3.1,22.4-10.1c13.4-7.1,31.3-18.7,48.5-34.6c34.6-31.5,66.5-80.8,58.1-136.1c-7.9-55.1-41.9-100.6-75.2-131.2
				c-8-7.7-16.7-14.5-24.6-20.4c-7.5-6-15.3-11.1-21.9-15.4c-3.3-2.2-6.2-4.2-8.9-6.2c-2.8-1.9-5.5-3.5-7.7-5.1
				C845,55.2,842,52.2,840.6,49.1z"/>
			<path class="st4" d="M993.8,0c-6.1,8.4-11.9,16.6-17.9,24.4c-10.4,13.6-21.4,25.5-32.6,33.2c-2.8,2-5.6,4-8.3,5.4
				c-2.7,1.3-5.4,2.3-7.9,3.2c-5.1,1.7-9.7,2.4-13.4,1.9c0,0,4.6,4.8,15.6,11.7c2.7,1.7,5.9,3.6,9.5,5.4c3.5,1.6,7.3,3.2,11.7,4.8
				c8.6,3.2,19.3,6.6,30.2,8.2c45.4,8.5,107.6,0.6,148.7-29.9c22.9-16.6,42-42.2,59.1-68.2L993.8,0L993.8,0z"/>
			<path class="st4" d="M1091.5,170.1c0,0-1.8,6.7-4.1,16.9c-1.9,10-6,24.2-9.5,38.8c-4.2,15-8.1,30.7-10.8,46.9
				c-2,15.9-3.3,32.6,1.7,50c6.5,24.7,24.5,58.6,33.8,94.8c9.7,35.8,10.5,72.8-8.5,93.4c0,0,9.2-2.3,23.5-7.7
				c14.4-5.4,33.5-14.1,53-27.1c19.3-13,39.3-30.2,53.4-52c14.3-21.6,23.5-47.7,21-75.9c-2.4-28.2-12.2-54.3-26.9-76.4
				c-13.9-22.1-33-40-50.6-53.7C1131.1,190.5,1097,181.7,1091.5,170.1z"/>
			<path class="st4" d="M1142.2,173.1c0,0,6.2,3.8,17.8,8.9c5.8,2.6,13.1,5.4,21.4,7.8c8.3,2.4,18.2,5.1,28.5,6.7
				c41.9,7.5,99.6,4.7,144.1-22.2c31.8-19,60.8-53.9,86.7-86c26.2-32.2,49.5-61.8,78.6-72.4c0,0-9.7-1.6-25.1-3.3
				c-15.3-1.6-36.6-3.6-59.7-4.2c-46.7-1.1-100.4,2.2-140.7,27.4c-40.4,25.6-66.8,58.7-90.8,86.9
				C1179.5,150.9,1157.2,172.7,1142.2,173.1z"/>
			<path class="st4" d="M1349.3,344.9c0,0-22,16.7-42.4,40c-21.2,23.6-40.9,53-38.2,85.7c0.5,5.9,2.2,12.2,4.1,18.8
				c1.8,6.6,4.2,13.6,6.9,20.8c5.8,14.5,11.3,29.7,16.6,45.1c5,15.3,7.9,30.4,8.5,44.1c-0.3,13.5-3.5,25.5-11.5,34.1
				c0,0,8.8-1.9,22.3-6.2c13.4-4.4,32-11.2,50.4-21.5c17.9-10.2,37.5-23.7,51-40.4c6.9-8.3,13-17.4,17.2-27.1
				c3.9-9.7,6.3-20.1,6.5-30.9c0.1-43.4-23.3-80.6-47.1-107.5c-5.9-6.8-11.6-13-16.9-18.6c-5.5-5.6-10.6-10.8-14.9-15.2
				C1353.5,357.1,1348.4,350.1,1349.3,344.9z"/>
			<path class="st4" d="M1363.6,332.4c0,0,22.2,14.9,57,25.5c16.9,4.8,37.2,8.7,57.6,8.9c20.1,0.1,41.4-3,59.5-11.5
				c26.7-12.2,52.2-37.6,79-59.3c13.3-10.7,26.9-20.3,40.5-27.1c13.6-6.2,27.2-9.6,39.6-8c0,0-6-5.5-16.8-13.1
				c-10.7-7.6-26.6-17.6-45.9-26.1c-37.9-16.7-91.2-27.2-132.6-9.5c-41.5,17.3-67.2,47.5-88.3,72.6c-5.2,6.4-10.2,12.6-14.8,18.3
				c-4.7,5.5-9.1,10.5-13.3,14.7C1376.9,326.6,1369.7,332.1,1363.6,332.4z"/>
			<path class="st4" d="M1553.7,492.4c0,0-2.2,6.1-5.1,15.6c-2.9,9.6-6.1,22.3-9,36.2c-6.6,28.8-10.3,60.1,5.7,88.7
				c2.9,5.1,7.2,10.3,11.8,15.7c4.2,5.5,9.1,11.2,14.4,17.2c11.4,11.8,21.6,24.7,31.9,38.2c5.5,6.7,9.1,13.6,12.7,20.4
				c3.5,6.8,6.6,13.7,8.8,20.3c2.9,13.1,2.3,25.5-3.5,34.9c0,0,8.2-2.9,20.5-9.2c6.2-3.2,13.3-7.2,21-12.3
				c7.5-5.1,16.4-11.3,23.4-18.3c7.3-7.1,14.6-15.2,21.1-24.3c3.2-4.5,6.5-9.3,9.1-14.2c2.4-4.9,4.6-9.9,6.4-15.1
				c3.6-10.4,6.4-21.6,6.5-33c-0.3-11.2-2.4-22.7-6.7-34c-19.3-45.2-60-75.5-97-92.7c-9.1-4.4-17.8-8.2-25.6-11.6
				c-8.1-3.3-16-5.9-22.4-8.4C1564.6,501.6,1556,497.5,1553.7,492.4z"/>
		</g>
		<g class="st5">
			<g>
				<path class="st4" d="M547.5,0c-11.3,6.7-20.1,12.4-26.6,16.9c-9.3,6.4-14.1,10.6-15.8,13.5c-3.3,5.7,6.2,5.8,20.6,6.6
					c28.2,1.2,52.6,3.6,73.9,5.1c21.4,1.9,40,3.6,56.8,4.6c17.1,1.4,32.4,2.1,47.3,2.2c15,0.4,29.6,0.2,44.8-0.6
					c49.9-2.3,87.2-11.3,111.7-24c13.7-7.1,23.2-15.4,28.6-24.3H547.5z"/>
			</g>
			<g>
				<path class="st4" d="M558.8,324.1c14.5-2.6,27.8-9.7,37.8-20.9c10-11.3,16.9-26.4,18.8-44.6c0.6-4.5,0.8-9.2,0.7-14.1
					c-0.1-2.4-0.2-5-0.4-7.5c-0.1-2.5-0.3-5-0.6-7.6s-0.7-5.2-1.1-7.9c-0.5-2.5-1.2-6.2-1.6-6.7c-0.3,0-0.9-5.7-1.6-8.9
					c-0.7-3.7-1.5-7.2-2.5-10.8c-3.8-14-9.4-28.2-16.4-43.4c-7.1-15.2-15.8-31.1-24.9-48.3c-7.2-13.9-11.4-24.2-13-31.7
					c-1-3.8-0.8-7.2-0.8-9.7c0.2-1.2,0.2-2.3,0.2-3.2c0.1-0.9,0.1-1.6,0-2.2c-0.4-2.5-2.8-3.3-7-2.7c-4.1,0.7-9.3,3.4-14.5,8.2
					c-5.4,5.1-9.2,10-12.6,14.8c-3.4,4.8-6.2,9.3-8.9,13.8c-5.2,8.8-9.3,17.1-12.9,24.8c-7.1,15.5-12,29-15.9,41.3
					c-3.8,12.3-6.4,23.4-8.2,34c-0.9,5.3-1.6,10.4-2.2,15.3c-0.3,2.3-0.5,4.6-0.8,6.9c-0.1,1.1-0.9,6.7-0.4,10.7
					c0.2,2.6,0.3,5.1,0.4,7.6c0.2,2.3,0.4,4.6,0.6,6.9c0.5,4.5,1.1,8.9,1.8,13.1c1.8,8.2,4.1,15.7,6.9,22.5
					c5.6,13.6,13.2,24,21.6,32.1C518.3,321.6,539.2,327.7,558.8,324.1z"/>
			</g>
			<g>
				<path class="st4" d="M1012.6,240.1c3.6-11.8,2.3-24.7-4.6-37c-3.5-6.2-8.3-12.1-14.6-17.7c-6.4-5.7-14.3-11-23.8-15.7
					c-19.1-9.5-44.9-16.9-78.5-19.8c-8.3-0.8-17.2-1.1-26.6-1.1c-9.4,0-19.1,0.2-29.3,0.9c-20.7,1.8-42.7,4.5-66.3,10.5
					c-18.8,4.3-32.3,8.9-41.5,12.3c-9.2,3.4-14.2,6-16.4,8.3c-4.4,4.4,2.5,7.2,12.6,11.9c19.9,8.8,36.1,18,50.3,25.4
					c14.2,7.8,26.5,14.7,37.8,20.3c11.4,6.1,21.8,11.1,32.2,15.4c10.4,4.6,20.9,8.5,32,12.1c36.7,12,68.4,13.9,92.4,8.5
					C992.2,268.7,1007.6,256.1,1012.6,240.1z"/>
			</g>
			<g>
				<path class="st4" d="M762.6,517.8c13.5-5.2,24.7-14.8,32.3-26.9c8-12.4,12.3-27.5,12.8-46.3c0.3-18.8-3.7-41.1-12.6-68
					c-4.6-13.6-10-28.2-17-44.4c-6.5-16.1-14.4-33.7-22.7-53.5c-3-7.9-5.9-15-8-21.1c-2.1-6.2-3.9-11.4-5.4-15.7
					c-2.6-8.7-4.8-14-7-16.6c-4.4-5.1-9,0.9-16.8,10.8c-14.6,19.5-24.7,37.8-32.8,54.3c-3.8,8.3-7.3,16.2-10.2,23.7
					c-2.7,7.5-5.3,14.8-7.3,21.7c-8.1,27.8-10.2,51.2-8.2,77c3.1,42.2,20.8,73.4,41.2,90.8c5.2,4.4,10.4,7.9,15.8,10.6
					c5.5,2.7,10.9,4.6,16.2,5.7C743.5,522.3,753.5,521.3,762.6,517.8z"/>
			</g>
			<g>
				<path class="st4" d="M1128.5,465.2c8.1-10.2,12-22.4,9.5-35.7c-1.3-6.6-4.2-13.6-8.9-20.6c-4.8-6.6-11.3-13-19.8-19.2
					c-8.4-6.5-18.6-11.5-30.5-16.2c-12.1-4.9-25.2-8.1-40.3-10.7c-7.6-1.4-15.2-2.2-23.3-2.7c-8.1-0.6-16.7-0.9-25.5-1
					c-8.7,0-17.9,0.3-27.6,0.8c-9.8,0.6-19.4,1.2-30.1,2.2c-17.3,1.8-29.5,2.4-38.7,3.4c-9.1,1-14.8,2-17.8,3.5
					c-6,2.8-1.5,7.1,5.4,14.2c6.9,6.9,13.4,13.8,19.8,19.5c6.4,5.8,12.5,11.2,18.3,16.2c11.7,10,22,17.9,31.9,25.1
					c9.5,6.9,18.4,12.7,27.4,17.8c8.6,5.1,17.1,9.5,26.4,13.6c29.1,13.6,52.8,16.8,73.6,14.6
					C1098.7,487.9,1117.5,478.9,1128.5,465.2z"/>
			</g>
			<g>
				<path class="st4" d="M885.9,717.3c14.2-3.5,27-11.1,36.5-21.9c4.7-5.4,9-11.3,12.1-17.9c1.6-3.3,3.2-6.5,4.4-10
					c0.6-1.7,1.2-3.5,1.6-5.3c0.5-1.7,1.2-3.4,1.6-5.2c3.6-14.3,4.3-28.7,3.5-49.5c-0.1-1.3-0.2-2.6-0.3-3.9
					c-0.1-1.4-0.4-2.3-0.1-4.9c0.2-2.3,0.3-4.6,0.4-6.8c-0.1-2.2-0.1-4.4-0.1-6.6c-0.4-8.5-1.6-16.6-3.3-24.7
					c-3.5-16.3-9-32.8-15-50.7c-4.8-14.4-7.4-24.9-8.5-32.6c-0.7-4-0.6-7-0.9-9.7c0.1-2.5,0.1-4.6-0.2-6.2c-0.5-3.1-2.4-4-6.2-2.9
					c-1.8,0.6-4.5,1.7-6.7,3.1s-5,3.3-7.5,5.4c-10.2,8.3-17.3,16.4-23.8,24c-6.5,7.7-11.9,14.8-16.9,21.6
					c-9.8,13.5-17.3,25.3-23.7,35.7c-6.4,10.3-11.5,19.1-15.9,25.1c-0.2,0.2-0.6,1.3-0.9,1.9l-1,2.2l-2,4.4c-1.3,3-2.5,6-3.7,9
					c-2.5,6.1-3.8,12.3-5.5,18.7c-4.6,21.2-3.4,41.2,1.8,56.6c2.3,7.9,5.8,14.5,9.4,20.4c3.6,6,7.9,10.7,12.3,14.9
					c8.8,8.4,18.8,13.1,28.7,15.7C866.2,719.8,876.3,719.7,885.9,717.3z"/>
			</g>
			<g>
				<path class="st4" d="M1333.7,649.1c6.7-10.8,8.2-23.7,1-38c-3.6-6.7-9.5-13.7-17.5-20.4c-8-6.2-18.4-12.5-30.6-17.2
					c-24.5-9.8-56.7-15-92.9-13c-18.2,0.9-37.2,3.7-57.4,8.1c-20.1,4.5-41,10.7-63.3,18.4c-35.8,12.6-52.7,18-57.8,22.4
					c-5,4.3,2.1,7.2,13.4,12c22.1,9.3,41.7,16.5,58.8,22.6c17.2,6.1,32,11.1,45.4,15.2c26.8,8.3,48,13.4,70.5,17.5
					c36.9,6.7,61.4,6.5,82.4,1.5c5.1-1.2,10.3-3,14.9-4.7c4.6-1.8,9-3.9,13.1-6.3C1322,662.5,1329.1,656.4,1333.7,649.1z"/>
			</g>
			<g>
				<path class="st4" d="M1139.1,990.7c29-4.8,53.2-29.3,55.5-71.8c0.3-5.3,0.2-10.9-0.2-16.8c-0.4-5.8-1.1-11.7-2.3-17.9
					c-2.4-12.5-6.3-26-12.1-40.4c-3-7.3-6.2-14.5-10.3-22.7c-1.2-2.4-2.4-4.8-3.6-7.3c-1.2-2.2-2.4-4.1-3.6-6.1
					c-2.5-4.1-5.1-8.1-7.8-12c-10.8-15.9-23.6-31.7-37-49.1c-21.8-28-27-43.5-32-48.4c-2.5-2.5-4.7-2.1-7.1,0.4
					c-1.2,1.2-2.5,3-3.9,5.1c-1.2,2.2-2.5,4.7-4,7.5c-10.4,22.4-14.6,42.6-17.8,60.1c-3,17.5-4.5,32.6-5.4,45.8
					c-0.2,3.3-0.4,6.5-0.6,9.6c-0.1,1.5-0.2,3-0.2,4.5l-0.1,2.2l-0.2,1.7l-0.4,3.4l-0.2,4.3c-0.1,3-0.2,5.9-0.3,8.8
					c-0.2,11.6,0.4,22.9,1.6,34.7c4.3,38.9,17.3,65.6,34.4,83.1C1098.5,986.7,1119.5,994,1139.1,990.7z"/>
			</g>
			<g>
				<path class="st4" d="M1460.1,855.5c7.4-10.5,10.6-22.9,6.1-36.5c-2.3-6.6-6.5-13.1-12.7-19.7c-6.2-6-14.6-12.3-24.5-17
					c-20.1-9.9-46.9-15.4-76.4-14.4c-14.9,0.4-30.2,2.4-46.6,5.7c-16.3,3.4-33.3,8-52.2,13.5c-30.5,8.7-46.3,10.9-51.8,14.5
					c-5.6,3.4-0.7,7.2,7.2,13.6c15.7,12.3,31.2,21.9,44.8,29.6c6.9,3.9,13.3,7.2,19.5,10.4c6.1,3.1,11.9,5.8,17.5,8.4
					c22.1,9.9,39.6,15.7,57.7,20.3c29.6,7.5,48.4,6.5,66.4,1.1c9-2.8,17.3-6.5,25.1-11.4C1448,868.6,1455,862.6,1460.1,855.5z"/>
			</g>
			<g>
				<path class="st4" d="M1395.9,1176c12.2-6.9,22.1-16.9,28.6-27.6c3.5-5.6,6-11.3,7.7-17.4c1.8-6.3,2.4-12.5,2.3-19.6
					c-0.6-13.9-5.6-29.7-16.3-49.3c-10.8-19.6-27.3-43.1-50.1-72.6c-18.3-24-26.4-36.1-32.1-39.3c-5.7-3.3-8.5,2-13.4,10.4
					c-18.7,33.1-28.8,59.2-34.1,81.7c-5.2,22.6-5.6,41.7-1.6,62.7c6.5,34.4,26.9,59,48.7,70.4c10.7,5.8,22.1,8.3,32.4,8.2
					C1378.3,1183.5,1387.7,1180.7,1395.9,1176z"/>
			</g>
			<g>
				<path class="st4" d="M1741.9,1003.6c-3.1-11.9-10.7-23.2-21.9-31.9c-5.6-4.4-12.1-8.2-19.5-11.2c-7.6-3.1-16.2-5.4-25.8-6.7
					c-9.4-1.3-20.5-1.6-32.4-0.8c-11.7,0.9-25.3,3.2-39.6,6.8c-7.1,1.8-14.7,4.1-22.5,6.9c-7.8,2.8-15.8,5.9-24,9.5
					c-16.7,7.8-34,16.9-51.3,29.6c-13.9,9.5-22.9,18-28.9,23.9c-5.9,6-8.8,9.9-9.5,12.6c-1.4,5.4,5.6,5.8,16,7.1
					c20.2,2.1,37.5,5.9,52.2,8.5c15,3.1,28,5.8,39.7,7.8c12,2.3,22.8,3.9,33.2,4.8c10.8,1.1,21.3,1.5,32.2,1.4
					c36.4-0.3,64.8-9,82.4-22.2C1740,1036.5,1746.1,1019.7,1741.9,1003.6z"/>
			</g>
			<g>
				<path class="st4" d="M1777.4,1323.1c9.9-9.1,16.2-20.9,18.2-33.6c1-6.3,0.9-12.9-0.5-19.6c-1.2-6.9-3.6-13.9-7.6-20.9
					c-15.6-28.5-53.7-58.6-130.3-94.5c-31-14.4-45.9-21.1-52.9-21.3c-6.9-0.3-5.8,5.5-4.6,14.7c2.3,18.1,5,33.7,7.8,47.6
					c2.9,13.8,6.2,25.8,9.6,36.7c3.8,10.8,7.9,20.4,12.6,29.6c5,9.1,10.6,17.6,17.1,26.2c22,28.1,48.9,43.9,72.9,48.5
					C1744,1341.3,1764.1,1335.5,1777.4,1323.1z"/>
			</g>
			<g>
				<path class="st4" d="M431.8,0c74.3,27.5,272.9,133.7,510.1,525.7c89.2,147.4,243.5,315.1,412.9,448.5
					c175.9,138.6,340.9,220.1,452.8,223.7l1-20.5c-220.2-7-654.2-346.7-844.3-660.8C759.6,178.3,584,49,486.3,0H431.8z"/>
			</g>
			<g>
				<path class="st4" d="M2066.6,1154.5c-17.8-20.1-52.2-28.3-88.9-25.2c-4.6,0.2-9.4,0.7-14.1,1.5c-4.8,0.6-9.7,1.2-14.7,2.4
					c-5.1,0.8-10.3,1.9-15.9,3.3c-2.8,0.5-5.7,1.1-8.6,1.9c-1.5,0.4-3,0.8-4.5,1.1c-1.6,0.3-3.1,0.6-4.7,1
					c-12.6,3.2-27.5,6.3-45.3,10c-17.8,3.8-38.9,7.2-62.7,11.6c-38.8,6.6-57.7,9.5-63.4,13.2c-5.8,3.6,0.9,7.4,11.1,13.7
					c40,24.9,72.7,41.7,104.8,51.9c32,10.2,63,13.9,97,11.3c27.9-2.2,51.4-9.3,69.3-17.7c8.9-4.3,16.4-9.1,22.9-13.7
					c6.3-4.8,11.3-9.9,15.3-14.7c4.1-4.8,6.9-9.8,8.7-14.6c1.8-4.8,2.8-9.4,2.8-13.8C2075.8,1169,2072.5,1161.1,2066.6,1154.5z"/>
			</g>
		</g>
	</g>
	<g class="st3">
		<g>
			<g>
				<path class="st4" d="M124.4,179.8l6.3-5.9c1,0.8,106,78.6,198,217.9c84.9,128.5,175.8,337.3,127.2,602l-9.4-1.2
					c48.2-262.4-41.9-469.4-126-596.8C229.4,257.6,125.5,180.5,124.4,179.8z"/>
			</g>
			<path class="st4" d="M150.6,193.4c0,0-18.1,7.6-37.6,19.6c-10.7,5.9-21.3,13-31.6,21.6c-10.6,8.6-19.7,18.6-27.2,31
				c-2.6,4.4-4.8,9.3-7,14.6c-2.3,5.4-4.4,11.1-6.4,17c-4,11.7-7.7,24.8-11.6,37.1c-3.8,12.5-7.5,24.8-12.3,35.3
				c-4.2,10.9-9.5,20-16.9,26.6c0,0,5.9-1.3,15.2-4s21.5-6.7,35-11.9c6.9-2.6,14-5.5,20.9-8.9C78,368,85,364.3,91.9,360
				c6.8-4.3,13.3-9.2,19.2-14.7c6.1-5.6,11.5-11.9,16.1-18.9c4.5-6.9,8.4-14.5,11.5-21.6c3.2-7.2,5.6-14.4,7.4-21.7
				c1.8-7.2,3-14.2,3.9-20.9c0.8-6.8,0.8-13.4,0.8-19.5s-0.2-11.7-0.5-16.9c-0.6-5.3-1.1-10.1-1.6-14.3
				C148,203.1,148.1,197,150.6,193.4z"/>
			<path class="st4" d="M161.1,200.7c0,0,13.1,11.2,27.5,23.4c4,3.3,8.2,6.6,12.8,9.8c5,3.4,10,6.5,16.2,9.4
				c6.4,2.9,12.7,5.6,20.9,7.5c4,1,8,1.9,12.3,2.5c4.6,0.5,9.2,0.9,13.9,1c6.6,0.4,14.1-0.7,21.5-1.7c1.8-0.3,3.7-0.6,5.6-0.9
				c1.6-0.3,3-0.7,4.5-1.1c3-0.8,6-1.6,9.1-2.4c6.2-1.7,12.3-3.6,18.9-5.6s13.2-4,19.6-6c13-3.8,25.8-7.8,37.4-9.8
				c11.7-2.5,22.4-3.4,31.7-1.6c0,0-3.9-3.5-10.6-8.7s-16-11.8-27-18.7c-22.3-13.7-49.9-27.4-84.9-25.4c-12.1,1-23.7,3.5-37.5,5.6
				c-6.7,1.3-14,2.3-20.6,3.8c-7.1,1.4-13.7,2.9-20.2,4.5c-6.5,1.7-12.4,3.3-17.9,5c-5.4,1.8-10.3,3.5-14.6,4.9
				C171.3,199.3,165.4,201.5,161.1,200.7z"/>
			<path class="st4" d="M241.9,283.1c0,0-19,7.5-41.1,22.2c-11.1,7.3-22.8,16.5-33.7,27.3c-11,10.7-20.9,23.2-27.7,37.6
				c-2.5,5.1-4.5,10.8-6.5,16.8c-2.1,5.9-4.1,12.1-5.9,18.6c-3.7,12.9-7,26.7-10.8,40.2c-8.2,26.5-18.6,51.5-35,64.6
				c0,0,24-3.6,53.5-15.7c7.4-3,15.1-6.6,22.8-10.8c7.8-4.1,15.5-8.9,22.6-14.5c14.3-11.1,27.4-24.8,36.7-41.2
				c9.1-16.5,13.9-33.1,17.2-48.6c1.6-7.8,2.7-15.3,3.4-22.5c0.6-7.2,0.7-14.2,0.8-20.7C238.3,310.3,235.9,290.9,241.9,283.1z"/>
			<path class="st4" d="M262,313.4c0,0,3.1,3.2,7.9,8.1c4.8,4.5,11.3,11.8,18.7,18.9c15.1,14.7,35.2,33.2,70.1,41.8
				c53.2,13,130-7.9,165.5,8.1c0,0-10.7-17.2-30.2-35.5s-46.4-37.8-79.1-44c-30-6-66.3-7.7-95.2-4.8c-7.3,0.8-14,1.6-20.1,2.5
				c-6.1,1.1-11.7,2.1-16.6,2.9C273.4,313.2,266.5,314.8,262,313.4z"/>
			<path class="st4" d="M330.9,403.5c0,0-4.5,0.5-12.3,2.7c-3.8,1.1-8.8,2.5-13.7,4.7c-4.8,2.2-10.2,4.9-15.9,8.3
				c-5.6,3.4-10.7,7.2-16.2,11.7c-5.4,4.5-10,8.9-14.6,14.1c-4.5,4.9-8.3,9.9-11.7,15.3c-1.6,2.4-3.1,4.9-4.4,7.5
				c-0.7,1.3-1.2,2.6-1.8,4c-0.6,1.2-1.1,2.4-1.6,3.6c-0.7,1.7-1.3,3.6-1.8,5.5c-0.4,1.7-0.9,3.5-1.3,5.4c-0.4,1.7-0.7,3.5-1,5.4
				c-0.2,1,0,1.9-0.6,3c-0.5,1.1-1,2.2-1.6,3.3c-2,4.6-4.1,9.4-6.2,14.2c-0.9,2.5-2.5,5.1-4,7.7c-1.5,2.6-3,5.2-4.5,7.8
				c-5.8,10.2-13,20.5-20.2,28.9c-7.3,8.6-15,15.8-23.9,20c0,0,6,0.3,15.5,0.2c9.6-0.1,22-0.5,36.5-1.9c7.2-0.7,14.7-1.7,22.3-3.2
				s15.7-3.9,23.5-6.8c3.9-1.5,7.8-3.1,11.7-4.9c4-2.2,8-4.7,11.8-7.4c7.7-5.7,15.2-10.7,21.2-20.7c12.6-18.6,14.4-33.8,15.4-47.8
				c0.3-13.7-1.8-25.6-3.4-36.2c-1.9-10.7-2.9-19.9-2.9-27.8C325.8,412.3,327.7,406.3,330.9,403.5z"/>
			<path class="st4" d="M355.8,438.1c0,0,0.6,3.9,3.7,10.6c3.1,6.4,9.2,15.5,18.5,24.2c18.6,17.8,49.4,34.1,81.6,37.7
				c11.6,1.4,24.1,1.1,37.1,0.9c1.7,0,3.3,0,5-0.1h5.7c3.8,0,7.7,0,11.5,0c7.8-0.1,15.7-0.2,23.3-0.3c15.8-0.3,31.3-0.7,45.4-1.3
				c7,0,13.8-0.6,20-0.2c6.3,0,12.2,0.2,17.7,1.3c0,0-4.6-3.5-11.7-8.9c-3.5-2.6-7.6-6-12-9.6c-4.4-3.5-9-7.7-13.8-11.9
				c-9.6-8.4-19.4-17.5-31.8-25.8c-6.1-4.1-13.3-8-20.7-11.2c-1.9-0.8-3.8-1.6-5.7-2.3c-2.3-0.8-4.6-1.6-6.9-2.3
				c-4.6-1.5-9.8-2.6-14.8-3.5c-20-3.4-37.6-3.1-53.7-1.8c-16,1.4-30.5,3.9-43.5,5.9s-24.8,3.7-34.4,3.6c-4.9,0-9.1-0.5-12.7-1.2
				C360.3,440.7,357.5,439.5,355.8,438.1z"/>
			<path class="st4" d="M389.8,530.3c0,0-4.1,2.1-10.4,5.3c-2.9,1.5-6.9,3.3-11.1,5.2c-2.1,0.9-4.2,1.9-6.4,3
				c-2.4,1-4.8,2.1-7.3,3.2c-19.6,9-43,20.4-59.1,40.6c-11.3,14.4-21.2,36.6-34.1,56.8c-12.6,20.1-28.7,38.3-46.5,42
				c0,0,5.1,1.7,14.1,3.4c9,1.6,22,2.9,36.8,2.1c29.7-1.2,67-10.6,91-35.9c24-25.1,32.7-55,34.3-78.6c0.5-5.8,0.4-11.5,0.1-16.6
				c-0.1-5-0.8-9.6-1.3-13.6c-0.2-2-0.4-3.8-0.6-5.5s-0.5-3.3-0.6-4.7C388.6,534.2,388.9,532,389.8,530.3z"/>
			<path class="st4" d="M410.2,562.5c0,0-0.5,3.5,0.6,10c0.3,1.6,0.6,3.5,1.2,5.4c0.6,1.8,1.4,3.7,2.4,5.9c1.9,4.2,4.6,9.1,8.2,13.5
				c14.2,18.7,43.5,36.3,75.3,37.6c22.9,1.2,50.6-6,75.6-12.6c25.1-6.5,48.4-12.2,64.7-7.1c0,0-3-3.8-8.5-9.5s-13.7-13.1-23.5-20.6
				c-19.9-14.9-45.9-29.5-74.2-30.1c-28.6-0.5-52.7,6.5-74.9,10.6c-11,2-21.3,3.2-29.7,2.6c-2.1-0.1-4.2-0.2-6-0.6
				c-1.7-0.4-3.3-0.9-4.8-1.4C413.6,565.1,411.4,563.9,410.2,562.5z"/>
			<path class="st4" d="M432,663.6c0,0-4,2.1-10,5.5c-5.8,3.4-14.4,7.8-23.1,12.6c-9.1,4.7-18.5,9.8-27.6,15.4
				c-8.7,5.8-17.5,12.2-24.1,20.9c-9.6,12.2-19.1,32.1-33.2,49.9c-13.8,17.8-31.7,33.1-49.7,35.1c0,0,4.9,2.1,13.4,4.7
				c8.5,2.6,20.6,5.5,35,6.7c14.3,1.2,30.9,0.8,47.4-3.3c16.5-4,33.1-11.5,46.1-23.9c13-12.3,21.9-26.2,26.9-40.1
				c5.3-13.7,6.4-27.3,6-38.8C438.1,685.1,428.5,670.1,432,663.6z"/>
			<path class="st4" d="M451.2,681.8c0,0,0.6,3.6,2.9,9.6c1.1,3,2.7,6.6,4.9,10.3c2.2,3.8,4.9,8.2,8.3,12.3
				c13.4,17.1,38.2,35.3,69.6,39.2c22.4,2.9,51.4-1.5,77.8-6c26.6-4.4,50.7-8.5,67.8-3.1c0,0-3.1-3.9-8.6-9.7
				c-5.4-5.8-13.1-13.7-22.3-21.7c-18.5-16.1-42-32.7-70.8-36c-29.1-3.1-56.2,1.5-80,5C477.4,685.2,457.5,686.6,451.2,681.8z"/>
			<path class="st4" d="M450.5,821c0,0-17.2-0.5-37,2.1c-20.3,2.5-42.9,7.8-57.9,22.1c-2.7,2.6-5.1,5.7-7.6,9s-5,6.9-7.5,10.8
				c-4.8,7.8-10.1,15.9-15.6,23.9c-5.5,7.9-11.8,15-18.4,20.8c-6.8,5.4-14,9.2-21.5,10c0,0,4.5,2.2,12.2,4.9
				c7.6,2.7,18.6,6.2,31.1,8.2c12.4,1.8,27,2.9,40.8,0.7c6.9-1.1,13.9-2.7,20.4-5.3c6.4-2.6,12.5-6.1,18-10.4
				c21.5-17.7,30.4-40.6,34-59.5c1-4.7,1.7-9.2,2.3-13.2c0.5-4.1,1-7.9,1.5-11.2C446.2,827.4,447.5,822.8,450.5,821z"/>
			<path class="st4" d="M462.5,820.7c0,0,1.6,13.5,10.6,29.5c4.5,7.6,10.8,16,19,22.9c8.1,6.8,18.3,12.6,29.9,15.2
				c16.9,4,39.8,2.2,61.5,2.3c10.7,0.1,21,0.8,29.9,2.5c8.6,2,15.8,5.2,20.1,10c0,0,0.3-4.2-0.4-11c-0.6-6.7-2.1-16.1-5.8-26
				c-7.2-19.5-23.7-41.6-49.3-48.3c-25.4-6.9-50.9-3.2-71.9,0c-5.3,0.9-10.4,1.7-15.1,2.5c-4.6,0.7-8.9,1.2-12.7,1.6
				C470.8,822.8,465.1,822.6,462.5,820.7z"/>
			<path class="st4" d="M460.7,949.5c0,0-3.9,1.7-9.8,4.7c-6,2.9-13.5,7-21.6,11.7c-16.9,9.5-33.9,21-41.6,38
				c-1.3,3.1-2.1,6.6-3,10.3c-1,3.6-1.9,7.6-2.6,11.8c-1.2,8.6-3.4,17.3-5.9,26.2c-1.1,4.6-3,8.6-4.9,12.6s-4.1,7.8-6.5,11.2
				c-5.3,6.3-11.7,11.1-18.7,13c0,0,4.7,1.6,12.9,3.1c4.1,0.8,9,1.5,14.7,2c5.6,0.5,12.2,0.9,18.6,0.4c6.5-0.4,13.4-1.3,20.6-2.8
				c3.5-0.8,7.3-1.6,10.7-2.7c3.4-1.2,6.8-2.5,10.1-4c6.6-3,13.3-6.7,18.9-11.2c5.4-4.7,10.3-10,14.1-16.1
				c14.5-24.8,12.9-50.8,6.4-70.2c-1.5-4.9-3.2-9.3-4.7-13.3c-1.7-4-3.6-7.7-5-10.9C460.6,956.9,459.1,952.3,460.7,949.5z"/>
		</g>
		<g class="st5">
			<g>
				<path class="st4" d="M446.2,519.3c5.2-5.6,7.4-13.1,5.7-21.9c-0.8-4.4-2.6-9.1-5.5-14c-3-4.9-7-9.9-12.2-15.1
					c-10.5-10.3-25.8-21-47-30.7c-5.2-2.5-10.9-4.8-17-7c-6-2.2-12.4-4.4-19.1-6.5c-13.7-3.9-28.6-7.7-45.3-10.2
					c-13.3-2.2-23.2-3.2-30.1-3.7s-11-0.4-13.1,0.2c-4.2,1.2-0.4,4.4,5.1,9.6c10.9,9.9,19.6,19.1,27.5,26.8
					c7.8,7.9,14.5,14.8,20.9,20.9c6.3,6.3,12.2,11.7,18.2,16.7c5.9,5.2,12,10,18.5,14.7c21.4,15.8,41,24.7,57.3,27.7
					C426.3,529.8,439.2,526.9,446.2,519.3z"/>
			</g>
			<g>
				<path class="st4" d="M139,547.9c7.2,3.8,16.1,5.4,25.7,4.2c9.7-1.2,19.9-5.1,29.7-11.9c2.4-1.6,4.9-3.5,7.2-5.5
					c1.2-1,2.4-2.1,3.5-3.2c1.2-1,2.4-2.1,3.5-3.3c1.2-1.2,2.3-2.4,3.5-3.6c1-1.2,2.6-2.9,2.7-3.3c-0.1-0.1,2.5-2.6,3.8-4.2
					c1.5-1.7,3-3.4,4.3-5.2c5.4-7,10.1-14.6,14.8-23.1c4.6-8.5,9-17.9,13.8-28c3.9-8.1,7.3-13.7,10.4-17.2c1.5-1.9,3.2-3.2,4.5-4.2
					c0.6-0.4,1.2-0.8,1.7-1.2c0.5-0.3,0.8-0.6,1.1-0.9c1-1.2,0.5-2.3-1.5-3.4s-5.5-1.7-9.9-1.5c-4.7,0.3-8.7,1-12.4,1.8
					c-3.8,0.8-7.1,1.7-10.4,2.6c-6.5,1.9-12.2,3.8-17.5,5.8c-10.5,3.9-19.2,7.8-26.9,11.5c-7.6,3.7-14.2,7.4-20.1,11.1
					c-3,1.8-5.8,3.7-8.4,5.5c-1.2,0.8-2.5,1.7-3.8,2.5c-0.6,0.4-3.7,2.4-5.5,4.2c-1.2,1.1-2.4,2.2-3.6,3.2c-1.1,1-2.1,2-3.2,3
					c-2.1,2-4,4-5.7,6c-3.3,3.9-6.1,7.8-8.3,11.5c-4.4,7.4-6.5,14.2-7.1,20.3C123.8,533.3,129.3,542.8,139,547.9z"/>
			</g>
			<g>
				<path class="st4" d="M365.3,665.6c7.3-3.6,13.2-9.3,16.4-16.6c1.6-3.7,2.6-7.7,2.8-12.1c0.2-4.4-0.4-9.3-1.9-14.4
					c-3.1-10.3-9.9-21.9-22.2-34.4c-3-3.1-6.5-6.2-10.3-9.4c-3.8-3.1-7.9-6.3-12.4-9.5c-9.3-6.2-19.6-12.5-32.2-17.9
					c-9.8-4.6-17.5-7.2-23-8.9c-5.4-1.7-8.8-2.3-10.8-2.1c-4,0.3-2.5,3.8-0.8,9.1c3.7,10.2,5.8,19.4,7.9,27.2
					c1.9,7.9,3.5,14.8,5.3,20.9c1.6,6.3,3.4,11.8,5.5,17.1c2,5.4,4.3,10.5,7.1,15.6c9,17.2,21,28.6,33.4,34.4
					C342.8,670.4,355.4,670.5,365.3,665.6z"/>
			</g>
			<g>
				<path class="st4" d="M126.2,694.9c8.1,2.4,17.3,2.3,26.4-0.1c9.4-2.4,18.6-7.1,28.1-14.6c9.4-7.5,18.8-17.9,28.5-31.9
					c4.8-7.1,9.9-14.8,15-23.8c5.3-8.8,10.8-18.6,17.2-29.4c2.7-4.2,5-8.1,7.2-11.3s4.1-5.9,5.6-8.2c3.2-4.4,5-7.3,5.4-9.1
					c0.8-3.6-4.1-2.6-12.2-1.2c-15.6,3.1-28.8,7.1-40.2,11.1c-5.6,2.1-10.9,4.1-15.9,6.2c-4.8,2.2-9.5,4.2-13.7,6.4
					c-17,8.6-29.5,17.4-41.5,28.6c-19.6,18.2-27.8,36.8-28.1,50.8c-0.1,3.5,0.3,6.7,1.2,9.6c0.9,2.9,2.2,5.5,3.8,7.7
					C116.2,690.3,120.7,693.3,126.2,694.9z"/>
			</g>
			<g>
				<path class="st4" d="M301.1,796c8.3-1.4,16-5.1,21.5-11.4c2.8-3.1,5-6.9,6.6-11.3c1.3-4.3,1.8-9.1,1.5-14.4
					c-0.2-5.5-1.9-10.9-4.4-16.8c-2.5-6-6.3-11.8-11.1-17.8c-2.4-3.1-5.1-6-8.1-8.9s-6.4-6-9.9-8.9s-7.4-5.9-11.6-8.9
					c-4.3-3-8.5-6-13.3-9.2c-7.9-5.1-13.2-8.9-17.4-11.6c-4.2-2.7-7-4.1-9-4.6c-3.9-0.9-4.1,2.4-4.8,7.6c-0.6,5.1-1.4,10.1-1.6,14.6
					c-0.3,4.5-0.5,8.7-0.6,12.7c-0.2,8,0.1,14.6,0.6,20.9c0.5,6,1.2,11.3,2.3,16.4c1,5,2.3,9.6,4,14.4c5.1,15.3,13.2,24.5,22.7,30.6
					C277.8,795.3,289.9,798,301.1,796z"/>
			</g>
			<g>
				<path class="st4" d="M77.7,817.4c7.5,3.3,16.5,4.5,25.7,3.3c4.6-0.6,9.3-1.6,13.8-3.3c2.3-0.8,4.5-1.6,6.7-2.6
					c1.1-0.5,2.2-1,3.3-1.6c1.1-0.5,2.2-1,3.2-1.6c8.5-4.6,16-10.2,25.9-19c0.6-0.6,1.2-1.1,1.8-1.7c0.7-0.6,1-1.1,2.4-2
					c1.2-0.9,2.4-1.8,3.5-2.6c1.1-0.9,2.1-1.8,3.2-2.7c4-3.6,7.6-7.3,10.9-11.2c6.7-7.8,12.6-16.4,19-25.6
					c5.2-7.5,9.3-12.6,12.7-16.1c1.7-1.8,3.2-3,4.5-4.3c1.3-1,2.3-1.8,3-2.6c1.3-1.4,1-2.4-1.1-3.2c-1-0.4-2.7-0.8-4.3-1
					c-1.6-0.1-3.7-0.3-5.7-0.3c-8.2,0-15.1,0.9-21.6,1.8c-6.5,0.9-12.2,2.1-17.6,3.2c-10.7,2.2-19.6,4.5-27.3,6.6
					s-14.1,3.9-18.9,4.9c-0.2,0-0.9,0.3-1.3,0.5l-1.5,0.6l-3,1.1c-2,0.8-4,1.6-6,2.4c-4,1.6-7.6,3.7-11.5,5.8
					c-12.3,7.1-21.8,15.6-27.3,23.6c-3,4-4.8,7.8-6.3,11.5c-1.5,3.6-2.1,7-2.3,10.2c-0.6,6.3,1.1,11.6,3.9,16
					C68.4,811.8,72.6,815.2,77.7,817.4z"/>
			</g>
			<g>
				<path class="st4" d="M293.6,939.6c8.1-2.2,15.1-6.9,19.2-15.1c1.8-3.9,2.9-8.8,2.9-14.2c-0.2-5.2-1.3-11.3-3.9-17.2
					c-5.1-12.2-15.6-25.1-31.4-36.4c-7.8-5.7-17-11-27.4-15.9s-22-9.4-34.9-13.7c-20.8-6.9-30.4-10.3-34.6-10.2
					c-4.2,0.1-2.7,3.6-0.5,9.4c4.4,11.2,8.8,20.7,12.7,28.9c4,8.2,7.5,15.2,11,21.4c6.8,12.3,12.9,21.5,20,30.8
					c11.7,15.1,21.8,23.2,32.8,28.2c2.6,1.2,5.7,2.2,8.4,3.1c2.7,0.8,5.6,1.4,8.4,1.8C282.3,941.1,288.2,941,293.6,939.6z"/>
			</g>
			<g>
				<path class="st4" d="M45.5,1013.5c14.2,7.8,36.1,5.9,58.1-10.7c2.7-2.1,5.5-4.4,8.2-6.9s5.3-5.2,7.9-8.1
					c5.2-5.9,10.3-12.7,15.1-20.5c2.4-4,4.6-8,7-12.7c0.7-1.4,1.4-2.8,2.1-4.2c0.6-1.3,1.1-2.5,1.6-3.7c1-2.5,1.9-5,2.8-7.5
					c3.5-10.1,6.1-20.8,9.2-32.4c5-18.7,10.5-26.8,10.9-30.4c0.2-1.8-0.9-2.4-3.1-2.2c-1.1,0.1-2.5,0.4-4.1,0.8
					c-1.6,0.5-3.3,1.1-5.3,1.7c-15.3,5.6-27.1,12.5-37,18.5C109,901.3,101,907,94,912c-1.7,1.3-3.4,2.5-5,3.7
					c-0.8,0.6-1.6,1.2-2.3,1.8l-1.1,0.8l-0.9,0.6l-1.8,1.3l-2.2,1.7c-1.5,1.2-3,2.3-4.5,3.5c-5.8,4.7-11.2,9.5-16.5,14.7
					c-17.5,17.3-25.4,32.5-27.1,45.3C30.9,998.3,35.8,1008.2,45.5,1013.5z"/>
			</g>
			<g>
				<path class="st4" d="M243,1065.9c8.2-1.8,15.6-5.8,20.5-12.8c2.3-3.4,3.9-7.5,4.6-12.3c0.4-4.5,0.2-9.9-1.6-15.1
					c-3.3-10.7-11.5-22-24-31.4c-6.3-4.8-13.5-9.2-21.8-13.3s-17.5-7.9-27.9-12c-16.7-6.7-24.2-11.1-28.2-11.4c-4-0.5-3.8,2.7-3.8,8
					c0.3,10.3,1.8,19.4,3.6,27c0.9,3.9,1.8,7.4,2.8,10.8c1,3.3,1.9,6.3,3,9.2c4.1,11.4,8.4,19.6,13.5,27.6
					c8.3,13,16.5,18.9,26.5,22.7c5.1,1.9,10.2,3.1,15.8,3.8C231.6,1067.2,237.4,1067.1,243,1065.9z"/>
			</g>
			<g>
				<path class="st4" d="M58.3,1174.9c8.4,1.3,17.4,0.5,25.3-1.7c4.2-1.1,8.1-2.6,11.7-4.5c3.8-1.9,7.2-4.3,10.6-7.2
					c6.6-5.8,12.4-13.9,17.8-25.5c5.3-11.6,10.2-26.7,15.5-46.3c4.4-15.9,7.1-23.5,6.3-26.7c-0.7-3.2-4.5-2-10.6-0.2
					c-24,7.2-41,14.5-54.3,21.8c-13.3,7.4-22.9,15.1-31.6,25c-14.4,16.2-18.2,33-15,45c1.5,5.9,4.9,10.8,9.1,14.2
					C47.4,1172,52.6,1174,58.3,1174.9z"/>
			</g>
			<g>
				<path class="st4" d="M284.4,1220.6c4.7-5.9,7.1-13,6.9-20.3c-0.1-3.7-0.9-7.4-2.4-11.1c-1.6-3.8-3.9-7.6-7.2-11.4
					c-3.2-3.7-7.5-7.5-12.8-11.1c-5.2-3.6-11.9-7.2-19.5-10.5c-3.8-1.6-8-3.2-12.6-4.7s-9.4-2.9-14.5-4.2
					c-10.7-2.4-22.2-4.5-35.5-5.1c-10.4-0.8-18.2-0.4-23.6,0.1c-5.4,0.4-8.5,1.1-10.1,1.9c-3.2,1.7-0.6,4.2,3,8.2
					c7.2,7.6,12.3,15,17,20.9c4.6,6.3,8.5,11.8,12.3,16.4c3.8,5,7.4,9.2,11.2,13.1c3.9,4.1,7.9,7.7,12.4,11.3
					c14.9,12.1,30.8,18,44.5,18.6C267.4,1233.3,278.1,1228.5,284.4,1220.6z"/>
			</g>
			<g>
				<path class="st4" d="M140.8,1362.5c8.5-0.4,16.9-3.1,24-7.6c3.5-2.3,6.7-5,9.5-8.1c2.9-3.2,5.4-6.9,7.3-11.1
					c7.7-16.8,7.1-41.8-6.3-82.1c-5.5-16.3-8.2-23.9-11-26.4c-2.7-2.4-5.1,0.3-9.1,4.4c-8,8.2-14.7,15.4-20.4,22
					s-10.3,12.6-14.2,18.2c-3.8,5.7-6.9,11-9.5,16.3c-2.5,5.4-4.4,10.7-6,16.4c-4.9,18.8-1.8,34.2,5.7,44.1
					C118.2,1358.7,129.2,1363.1,140.8,1362.5z"/>
			</g>
			<g>
				<path class="st4" d="M262.8,372.2c18.4,41.5,42.4,153.3-54,389.8c-78,191.5-69.5,475,16.7,551.6l-10.6,8
					c-43.8-38.9-70.6-127.4-73.6-242.7c-2.9-111,17.2-230.9,53.8-320.8c123.4-302.7,45.1-398.1,44.3-399l11.6-7
					C252,353.2,257.1,359.3,262.8,372.2z"/>
			</g>
			<g>
				<path class="st4" d="M341.9,1390.7c2.7-14.1-7.3-29-23.7-40c-2-1.5-4.1-2.9-6.5-4.1c-2.2-1.4-4.5-2.8-7.2-4
					c-2.5-1.4-5.1-2.7-8.1-4c-1.4-0.7-2.9-1.4-4.4-2.1c-0.8-0.4-1.6-0.7-2.4-1c-0.8-0.4-1.6-0.8-2.4-1.2
					c-6.7-2.9-14.3-6.7-23.4-11.1s-19.4-10.1-31.3-16.3c-19.1-10.3-28.2-15.5-32.3-15.8c-4.1-0.5-3.3,3.3-2.3,9.3
					c3.9,23.5,9,41.3,17,56.2c8,14.8,18.8,26.7,33.9,37.1c12.5,8.4,25.5,13.4,37,16c5.7,1.3,11.2,1.8,16.1,2.1
					c5,0.2,9.5-0.3,13.5-0.9s7.6-1.7,10.7-3s5.8-2.9,8-4.7C338.5,1399.7,341,1395.4,341.9,1390.7z"/>
			</g>
		</g>
	</g>
	<g class="st3">
		<g>
			<g>
				<path class="st4" d="M2755.9,1792.6l-6.3,5.9c-1-0.8-106-78.6-198-217.9c-84.9-128.5-175.8-337.3-127.2-602l9.4,1.2
					c-48.2,262.4,41.9,469.3,126,596.8C2650.9,1714.7,2754.8,1791.8,2755.9,1792.6z"/>
			</g>
			<path class="st4" d="M2729.6,1778.9c0,0,18.1-7.6,37.6-19.6c10.7-5.9,21.3-13,31.6-21.6c10.6-8.6,19.7-18.6,27.2-31
				c2.6-4.4,4.8-9.3,7-14.6c2.3-5.4,4.4-11.1,6.4-17c4-11.7,7.7-24.8,11.6-37.1c3.8-12.5,7.5-24.8,12.3-35.3
				c4.2-10.9,9.5-20,16.9-26.6c0,0-5.9,1.3-15.2,4s-21.5,6.7-35,11.9c-6.9,2.6-14,5.5-20.9,8.9c-6.9,3.3-13.8,7.1-20.8,11.4
				c-6.8,4.3-13.3,9.2-19.2,14.7c-6.1,5.6-11.5,11.9-16.1,18.9c-4.5,6.9-8.4,14.5-11.5,21.6c-3.2,7.2-5.6,14.4-7.4,21.7
				c-1.8,7.2-3,14.2-3.9,20.9c-0.8,6.8-0.8,13.4-0.8,19.5s0.2,11.7,0.5,16.9c0.6,5.3,1.1,10.1,1.6,14.3
				C2732.3,1769.3,2732.2,1775.3,2729.6,1778.9z"/>
			<path class="st4" d="M2719.2,1771.6c0,0-13.1-11.2-27.5-23.4c-4-3.3-8.2-6.6-12.8-9.8c-5-3.4-10-6.5-16.2-9.4
				c-6.4-2.9-12.7-5.6-20.9-7.5c-4-1-8-1.9-12.3-2.5c-4.6-0.5-9.2-0.9-13.9-1c-6.6-0.4-14.1,0.7-21.5,1.7c-1.8,0.3-3.7,0.6-5.6,0.9
				c-1.6,0.3-3,0.7-4.5,1.1c-3,0.8-6,1.6-9.1,2.4c-6.2,1.7-12.3,3.6-18.9,5.6c-6.6,2-13.2,4-19.6,6c-13,3.8-25.8,7.8-37.4,9.8
				c-11.7,2.5-22.4,3.4-31.7,1.6c0,0,3.9,3.5,10.6,8.7c6.7,5.2,16,11.8,27,18.7c22.3,13.7,49.9,27.4,84.9,25.4
				c12.1-1,23.7-3.5,37.5-5.6c6.7-1.3,14-2.3,20.6-3.8c7.1-1.4,13.7-2.9,20.2-4.5c6.5-1.7,12.4-3.3,17.9-5
				c5.4-1.8,10.3-3.5,14.6-4.9C2708.9,1773.1,2714.9,1770.8,2719.2,1771.6z"/>
			<path class="st4" d="M2638.4,1689.2c0,0,19-7.5,41.1-22.2c11.1-7.3,22.8-16.5,33.7-27.3c11-10.7,20.9-23.2,27.7-37.6
				c2.5-5.1,4.5-10.8,6.5-16.8c2.1-5.9,4.1-12.1,5.9-18.6c3.7-12.9,7-26.7,10.8-40.2c8.2-26.5,18.6-51.5,35-64.6
				c0,0-24,3.6-53.5,15.7c-7.4,3-15.1,6.6-22.8,10.8c-7.8,4.1-15.5,8.9-22.6,14.5c-14.3,11.1-27.4,24.8-36.7,41.2
				c-9.1,16.5-13.9,33.1-17.2,48.6c-1.6,7.8-2.7,15.3-3.4,22.5c-0.6,7.2-0.7,14.2-0.8,20.7C2642,1662,2644.4,1681.5,2638.4,1689.2z"
				/>
			<path class="st4" d="M2618.3,1659c0,0-3.1-3.2-7.9-8.1c-4.8-4.5-11.3-11.8-18.7-18.9c-15.1-14.7-35.2-33.2-70.1-41.8
				c-53.2-13-130,7.9-165.5-8.1c0,0,10.7,17.2,30.2,35.5s46.4,37.8,79.1,44c30,6,66.3,7.7,95.2,4.8c7.3-0.8,14-1.6,20.1-2.5
				c6.1-1.1,11.7-2.1,16.6-2.9C2606.9,1659.1,2613.8,1657.6,2618.3,1659z"/>
			<path class="st4" d="M2549.4,1568.8c0,0,4.5-0.5,12.3-2.7c3.8-1.1,8.8-2.5,13.7-4.7c4.8-2.2,10.2-4.9,15.9-8.3
				c5.6-3.4,10.7-7.2,16.2-11.7c5.4-4.5,10-8.9,14.6-14.1c4.5-5,8.3-9.9,11.7-15.3c1.6-2.4,3.1-4.9,4.4-7.5c0.7-1.3,1.3-2.6,1.8-4
				c0.6-1.2,1.1-2.4,1.6-3.6c0.7-1.7,1.3-3.6,1.8-5.5c0.4-1.7,0.9-3.5,1.3-5.4c0.4-1.7,0.7-3.5,1-5.4c0.2-1,0-1.9,0.6-3
				c0.5-1.1,1-2.2,1.6-3.3c2-4.6,4.1-9.4,6.2-14.2c0.9-2.5,2.5-5.1,4-7.7s3-5.2,4.5-7.8c5.8-10.2,13-20.5,20.2-28.9
				c7.3-8.6,15-15.8,23.9-20c0,0-6-0.3-15.5-0.2c-9.6,0.1-22,0.5-36.5,1.9c-7.2,0.7-14.7,1.7-22.3,3.2s-15.7,3.9-23.5,6.8
				c-3.9,1.5-7.8,3.1-11.7,4.9c-4,2.2-8,4.7-11.8,7.4c-7.7,5.7-15.2,10.7-21.2,20.7c-12.6,18.6-14.4,33.8-15.4,47.8
				c-0.3,13.7,1.8,25.6,3.4,36.2c1.9,10.7,2.9,19.9,2.9,27.8C2554.5,1560,2552.6,1566,2549.4,1568.8z"/>
			<path class="st4" d="M2524.5,1534.2c0,0-0.6-3.9-3.7-10.6c-3.1-6.4-9.2-15.5-18.5-24.2c-18.6-17.8-49.4-34.1-81.6-37.7
				c-11.6-1.4-24.1-1.1-37.1-0.9c-1.7,0-3.3,0-5,0.1h-5.7c-3.8,0-7.7,0-11.5,0c-7.8,0.1-15.7,0.2-23.3,0.3
				c-15.8,0.3-31.3,0.7-45.4,1.3c-7,0-13.8,0.6-20,0.2c-6.3,0-12.2-0.2-17.7-1.3c0,0,4.6,3.5,11.7,8.9c3.5,2.6,7.6,6,12,9.6
				c4.4,3.5,9,7.7,13.8,11.9c9.6,8.5,19.4,17.5,31.8,25.8c6.1,4.1,13.3,8,20.7,11.2c1.9,0.8,3.8,1.6,5.7,2.3
				c2.3,0.8,4.6,1.6,6.9,2.3c4.6,1.5,9.8,2.6,14.8,3.5c20,3.3,37.6,3.1,53.7,1.8c16-1.4,30.5-3.9,43.5-5.9s24.8-3.7,34.4-3.6
				c4.9,0,9.1,0.5,12.7,1.2C2520,1531.6,2522.8,1532.8,2524.5,1534.2z"/>
			<path class="st4" d="M2490.5,1442c0,0,4.1-2.1,10.4-5.3c2.9-1.5,6.9-3.3,11.1-5.2c2.1-1,4.2-1.9,6.4-3c2.4-1.1,4.8-2.1,7.3-3.2
				c19.6-9,43-20.4,59.1-40.6c11.3-14.4,21.2-36.6,34.1-56.8c12.6-20.1,28.7-38.3,46.5-42c0,0-5.1-1.7-14.1-3.4
				c-9-1.6-22-2.9-36.8-2.1c-29.7,1.2-67,10.6-91,35.9c-24,25.1-32.7,55-34.3,78.6c-0.5,5.8-0.4,11.5-0.1,16.6
				c0.1,5,0.8,9.6,1.3,13.6c0.2,2,0.4,3.8,0.6,5.5c0.2,1.7,0.5,3.3,0.6,4.7C2491.7,1438.1,2491.4,1440.3,2490.5,1442z"/>
			<path class="st4" d="M2470.1,1409.9c0,0,0.5-3.5-0.6-10c-0.3-1.6-0.6-3.5-1.2-5.4c-0.6-1.8-1.4-3.7-2.4-5.9
				c-1.9-4.2-4.6-9.1-8.2-13.5c-14.2-18.7-43.5-36.3-75.3-37.6c-22.9-1.2-50.6,6-75.6,12.6c-25.1,6.5-48.4,12.2-64.7,7.1
				c0,0,3,3.8,8.5,9.5s13.7,13.1,23.5,20.6c19.9,14.9,45.9,29.5,74.2,30.1c28.6,0.5,52.7-6.5,74.9-10.6c11-2,21.3-3.2,29.7-2.6
				c2.1,0.1,4.2,0.2,6,0.6c1.7,0.4,3.3,0.9,4.8,1.4C2466.6,1407.2,2468.9,1408.4,2470.1,1409.9z"/>
			<path class="st4" d="M2448.2,1308.8c0,0,4-2.1,10-5.5c5.8-3.4,14.4-7.8,23.1-12.6c9.1-4.7,18.5-9.8,27.6-15.4
				c8.7-5.8,17.5-12.2,24.1-20.9c9.6-12.2,19.1-32.1,33.2-49.9c13.8-17.8,31.7-33.1,49.7-35.1c0,0-4.9-2.1-13.4-4.7
				s-20.6-5.5-35-6.7c-14.3-1.2-30.9-0.8-47.4,3.3c-16.5,4-33.1,11.5-46.1,23.9c-13,12.3-21.9,26.2-26.9,40.1
				c-5.3,13.7-6.4,27.3-6,38.8C2442.2,1287.2,2451.8,1302.2,2448.2,1308.8z"/>
			<path class="st4" d="M2429.1,1290.6c0,0-0.6-3.6-2.9-9.6c-1.1-3-2.7-6.6-4.9-10.3c-2.2-3.8-4.9-8.2-8.3-12.3
				c-13.4-17.1-38.2-35.3-69.6-39.2c-22.4-2.9-51.4,1.5-77.8,6c-26.6,4.4-50.7,8.5-67.8,3.1c0,0,3.1,3.9,8.6,9.7
				c5.5,5.8,13.1,13.7,22.3,21.7c18.5,16.1,42,32.7,70.8,36c29.1,3.1,56.2-1.5,80-5C2402.9,1287.1,2422.8,1285.7,2429.1,1290.6z"/>
			<path class="st4" d="M2429.8,1151.3c0,0,17.2,0.5,37-2.1c20.3-2.5,42.9-7.8,57.9-22.1c2.7-2.6,5.1-5.7,7.6-9s5-6.9,7.5-10.8
				c4.8-7.8,10.1-15.9,15.6-23.9c5.5-7.9,11.8-15,18.4-20.8c6.8-5.4,14-9.2,21.5-10c0,0-4.5-2.2-12.2-4.9
				c-7.6-2.7-18.6-6.2-31.1-8.2c-12.4-1.8-27-2.9-40.7-0.7c-6.9,1.1-13.9,2.7-20.4,5.3c-6.4,2.6-12.5,6.1-18,10.4
				c-21.5,17.7-30.4,40.6-34,59.5c-1,4.7-1.7,9.2-2.3,13.2c-0.5,4.1-1,7.9-1.5,11.2C2434.1,1144.9,2432.8,1149.5,2429.8,1151.3z"/>
			<path class="st4" d="M2417.8,1151.6c0,0-1.6-13.5-10.6-29.5c-4.5-7.6-10.8-16-19-22.9c-8.1-6.8-18.3-12.6-29.9-15.2
				c-16.9-4-39.8-2.2-61.5-2.3c-10.7-0.1-21-0.8-29.9-2.5c-8.6-2-15.8-5.2-20.1-10c0,0-0.3,4.2,0.4,11c0.6,6.7,2.1,16.1,5.8,26
				c7.2,19.5,23.7,41.6,49.3,48.3c25.4,6.9,50.9,3.2,71.9,0c5.3-0.9,10.4-1.7,15.1-2.5c4.6-0.7,8.9-1.2,12.7-1.6
				C2409.5,1149.5,2415.2,1149.7,2417.8,1151.6z"/>
			<path class="st4" d="M2419.6,1022.8c0,0,3.9-1.7,9.8-4.7c6-2.9,13.5-7,21.6-11.7c16.9-9.5,33.9-21,41.6-38
				c1.3-3.1,2.1-6.6,3-10.3c1-3.6,1.9-7.6,2.6-11.8c1.2-8.6,3.4-17.3,5.9-26.2c1.1-4.6,3-8.6,4.9-12.6s4.1-7.8,6.5-11.2
				c5.3-6.3,11.7-11.1,18.7-13c0,0-4.7-1.6-12.9-3.1c-4.1-0.8-9-1.5-14.7-2c-5.6-0.5-12.2-0.9-18.6-0.4c-6.5,0.4-13.4,1.3-20.6,2.8
				c-3.5,0.8-7.3,1.6-10.7,2.7c-3.4,1.2-6.8,2.5-10.1,4c-6.6,3-13.3,6.7-18.9,11.2c-5.4,4.7-10.3,10-14.1,16.1
				c-14.5,24.8-12.9,50.8-6.4,70.2c1.5,4.9,3.2,9.3,4.7,13.3c1.7,4,3.6,7.7,5,10.9C2419.7,1015.4,2421.1,1020,2419.6,1022.8z"/>
		</g>
		<g class="st5">
			<g>
				<path class="st4" d="M2434.1,1453c-5.2,5.6-7.4,13.1-5.7,21.9c0.8,4.4,2.6,9.1,5.5,14c3,4.9,7,9.9,12.2,15.1
					c10.5,10.3,25.8,21,47,30.7c5.2,2.5,10.9,4.8,17,7c6,2.2,12.4,4.4,19.1,6.5c13.7,3.9,28.6,7.7,45.3,10.2
					c13.3,2.2,23.2,3.2,30.1,3.7c6.9,0.5,11,0.4,13.1-0.2c4.2-1.2,0.4-4.4-5.1-9.6c-10.9-9.9-19.6-19.1-27.5-26.8
					c-7.8-7.9-14.5-14.8-20.9-20.9c-6.3-6.3-12.2-11.7-18.2-16.7c-5.9-5.2-12-10-18.5-14.7c-21.4-15.8-41-24.7-57.3-27.7
					C2454,1442.5,2441.1,1445.4,2434.1,1453z"/>
			</g>
			<g>
				<path class="st4" d="M2741.3,1424.5c-7.2-3.8-16.1-5.4-25.7-4.2c-9.7,1.2-19.9,5.1-29.7,11.9c-2.4,1.6-4.9,3.5-7.2,5.5
					c-1.2,1-2.4,2.1-3.5,3.2c-1.2,1-2.4,2.1-3.5,3.3c-1.2,1.2-2.3,2.4-3.5,3.6c-1,1.2-2.6,2.9-2.7,3.3c0.1,0.1-2.5,2.6-3.8,4.2
					c-1.5,1.7-3,3.4-4.3,5.2c-5.4,7-10.1,14.6-14.8,23.1c-4.6,8.5-9,17.9-13.8,28c-3.9,8.1-7.3,13.7-10.4,17.2
					c-1.5,1.9-3.2,3.2-4.5,4.2c-0.6,0.4-1.2,0.8-1.7,1.2c-0.5,0.3-0.8,0.6-1.1,0.9c-1,1.2-0.5,2.3,1.5,3.4s5.5,1.7,9.9,1.5
					c4.7-0.3,8.7-1,12.4-1.8c3.8-0.8,7.1-1.7,10.4-2.6c6.5-1.9,12.2-3.8,17.5-5.8c10.5-3.9,19.2-7.8,26.9-11.5
					c7.6-3.7,14.2-7.4,20.1-11.1c3-1.8,5.8-3.7,8.4-5.5c1.2-0.8,2.5-1.7,3.8-2.5c0.6-0.4,3.7-2.4,5.5-4.2c1.2-1.1,2.4-2.2,3.6-3.2
					c1.1-1,2.1-2,3.2-3c2.1-2,4-4,5.7-6c3.3-3.9,6.1-7.8,8.3-11.5c4.4-7.4,6.5-14.2,7.1-20.3
					C2756.4,1439.1,2751,1429.6,2741.3,1424.5z"/>
			</g>
			<g>
				<path class="st4" d="M2515,1306.7c-7.3,3.6-13.2,9.3-16.4,16.6c-1.6,3.7-2.6,7.7-2.8,12.1s0.4,9.3,1.9,14.4
					c3.1,10.3,9.9,21.9,22.2,34.4c3,3.1,6.5,6.2,10.3,9.4c3.8,3.1,7.9,6.3,12.4,9.5c9.3,6.2,19.6,12.5,32.2,17.9
					c9.8,4.6,17.5,7.2,23,8.9c5.4,1.7,8.8,2.3,10.8,2.1c4-0.3,2.5-3.8,0.8-9.1c-3.7-10.2-5.8-19.4-7.9-27.2
					c-1.9-7.9-3.5-14.8-5.3-20.9c-1.6-6.3-3.4-11.8-5.5-17.1c-2-5.4-4.3-10.5-7.1-15.6c-9-17.2-21-28.6-33.4-34.4
					C2537.4,1301.9,2524.9,1301.9,2515,1306.7z"/>
			</g>
			<g>
				<path class="st4" d="M2754.1,1277.4c-8.1-2.4-17.3-2.3-26.4,0.1c-9.4,2.4-18.6,7.1-28.1,14.6c-9.4,7.5-18.8,17.9-28.5,31.9
					c-4.8,7.1-9.9,14.8-15,23.8c-5.3,8.8-10.8,18.6-17.2,29.4c-2.7,4.2-5,8.1-7.2,11.3c-2.2,3.2-4,5.9-5.6,8.2
					c-3.2,4.4-5,7.3-5.4,9.1c-0.8,3.6,4.1,2.6,12.2,1.2c15.6-3.1,28.8-7.1,40.2-11.1c5.6-2.1,10.9-4.1,15.9-6.2
					c4.8-2.2,9.5-4.2,13.7-6.4c17-8.6,29.5-17.4,41.4-28.6c19.6-18.2,27.8-36.8,28.1-50.8c0.1-3.5-0.3-6.7-1.2-9.6s-2.2-5.5-3.8-7.7
					C2764.1,1282,2759.6,1279,2754.1,1277.4z"/>
			</g>
			<g>
				<path class="st4" d="M2579.2,1176.3c-8.3,1.4-16,5.1-21.5,11.4c-2.8,3.1-5,6.9-6.6,11.3c-1.3,4.3-1.8,9.1-1.5,14.4
					c0.2,5.5,1.9,10.9,4.4,16.8c2.5,6,6.3,11.8,11.1,17.8c2.4,3.1,5.1,6,8.1,8.9s6.4,6,9.9,8.9s7.4,5.9,11.6,8.9
					c4.3,3,8.5,6,13.3,9.2c7.9,5.1,13.2,8.9,17.4,11.6s7,4.1,9,4.6c3.9,0.9,4.1-2.4,4.8-7.6c0.6-5.1,1.4-10.1,1.6-14.6
					c0.3-4.5,0.5-8.7,0.6-12.7c0.2-8-0.1-14.6-0.6-20.9c-0.5-6-1.2-11.3-2.3-16.4c-1-5-2.3-9.6-4-14.4
					c-5.1-15.3-13.2-24.5-22.7-30.6C2602.5,1177.1,2590.4,1174.4,2579.2,1176.3z"/>
			</g>
			<g>
				<path class="st4" d="M2802.6,1154.9c-7.5-3.3-16.5-4.5-25.7-3.3c-4.6,0.6-9.3,1.6-13.8,3.3c-2.3,0.8-4.5,1.6-6.8,2.6
					c-1.1,0.5-2.2,1-3.3,1.6c-1.1,0.5-2.2,1-3.2,1.6c-8.5,4.6-16,10.2-25.9,19c-0.6,0.6-1.2,1.1-1.8,1.7c-0.7,0.6-1,1.1-2.4,2
					c-1.2,0.9-2.4,1.8-3.5,2.6c-1.1,0.9-2.1,1.8-3.2,2.7c-4,3.6-7.6,7.3-10.9,11.2c-6.7,7.8-12.6,16.4-19,25.6
					c-5.2,7.5-9.3,12.6-12.7,16.1c-1.7,1.8-3.2,3-4.5,4.3c-1.3,1-2.3,1.8-3,2.6c-1.3,1.4-1,2.4,1.1,3.2c1,0.4,2.7,0.8,4.3,1
					c1.6,0.1,3.7,0.3,5.7,0.3c8.2,0,15.1-0.9,21.6-1.8s12.2-2.1,17.6-3.2c10.7-2.2,19.6-4.5,27.3-6.6s14.1-3.9,18.9-4.9
					c0.2,0,0.9-0.3,1.3-0.5l1.5-0.6l3-1.1c2-0.8,4-1.6,6-2.4c4-1.6,7.6-3.7,11.5-5.8c12.3-7.1,21.8-15.6,27.3-23.6
					c3-4,4.8-7.8,6.3-11.5c1.5-3.6,2.1-7,2.3-10.2c0.6-6.3-1.1-11.6-3.9-16C2811.9,1160.5,2807.7,1157.2,2802.6,1154.9z"/>
			</g>
			<g>
				<path class="st4" d="M2586.6,1032.8c-8.1,2.2-15.1,6.9-19.2,15.1c-1.8,3.9-2.9,8.8-2.9,14.2c0.2,5.2,1.3,11.3,3.9,17.2
					c5.1,12.2,15.6,25.1,31.4,36.4c7.9,5.7,17,11,27.4,15.9s22,9.4,34.9,13.7c20.8,6.9,30.4,10.3,34.6,10.2c4.2-0.1,2.7-3.6,0.5-9.4
					c-4.4-11.2-8.8-20.7-12.7-28.9c-4-8.2-7.5-15.2-10.9-21.4c-6.8-12.3-12.9-21.5-20-30.8c-11.7-15.1-21.8-23.2-32.8-28.2
					c-2.7-1.2-5.7-2.2-8.4-3.1c-2.7-0.8-5.6-1.4-8.4-1.8C2598,1031.2,2592.1,1031.3,2586.6,1032.8z"/>
			</g>
			<g>
				<path class="st4" d="M2834.8,958.9c-14.2-7.8-36.1-5.9-58.1,10.7c-2.7,2.1-5.5,4.4-8.2,6.9s-5.3,5.2-7.9,8.1
					c-5.2,5.9-10.3,12.7-15.1,20.5c-2.4,4-4.6,8-7,12.7c-0.7,1.4-1.4,2.8-2.1,4.2c-0.6,1.3-1.1,2.5-1.6,3.7c-1,2.5-1.9,5-2.8,7.5
					c-3.5,10.1-6.1,20.8-9.2,32.4c-5,18.7-10.5,26.8-10.9,30.4c-0.2,1.8,0.9,2.4,3.1,2.2c1.1-0.1,2.5-0.4,4.1-0.8
					c1.6-0.5,3.3-1.1,5.3-1.7c15.3-5.6,27.1-12.5,37-18.5c9.9-6.1,17.9-11.8,24.9-16.8c1.7-1.3,3.4-2.5,5-3.7
					c0.8-0.6,1.6-1.2,2.3-1.8l1.1-0.8l0.9-0.6l1.8-1.3l2.2-1.7c1.5-1.2,3-2.3,4.5-3.5c5.8-4.7,11.2-9.5,16.5-14.7
					c17.5-17.3,25.4-32.5,27.1-45.3C2849.4,974.1,2844.4,964.1,2834.8,958.9z"/>
			</g>
			<g>
				<path class="st4" d="M2637.3,906.4c-8.2,1.8-15.6,5.8-20.5,12.8c-2.3,3.4-3.9,7.5-4.6,12.3c-0.4,4.5-0.2,9.9,1.6,15.1
					c3.3,10.7,11.5,22,24,31.5c6.3,4.8,13.5,9.1,21.8,13.3c8.3,4.1,17.5,7.9,27.9,12c16.7,6.7,24.2,11.1,28.2,11.4
					c3.9,0.5,3.8-2.7,3.8-8c-0.3-10.3-1.8-19.4-3.6-27c-0.9-3.9-1.8-7.4-2.8-10.8c-1-3.3-1.9-6.3-3-9.2
					c-4.1-11.4-8.4-19.6-13.5-27.6c-8.3-13-16.5-18.9-26.5-22.7c-5.1-1.9-10.2-3.2-15.8-3.8C2648.7,905.1,2642.9,905.2,2637.3,906.4
					z"/>
			</g>
			<g>
				<path class="st4" d="M2822,797.4c-8.4-1.3-17.4-0.5-25.3,1.7c-4.2,1.1-8.1,2.6-11.7,4.5c-3.8,1.9-7.2,4.3-10.6,7.2
					c-6.6,5.8-12.4,13.9-17.8,25.5c-5.3,11.6-10.2,26.7-15.5,46.3c-4.4,15.9-7.1,23.5-6.3,26.7c0.7,3.2,4.5,2,10.6,0.2
					c24-7.2,41-14.5,54.3-21.8c13.3-7.4,22.9-15.1,31.6-25c14.4-16.2,18.2-33,15-45c-1.5-5.9-4.9-10.8-9.1-14.2
					C2832.9,800.3,2827.7,798.3,2822,797.4z"/>
			</g>
			<g>
				<path class="st4" d="M2595.9,751.8c-4.7,5.9-7.1,13-6.9,20.3c0.1,3.7,0.9,7.4,2.4,11.1c1.6,3.8,3.9,7.6,7.2,11.4
					c3.2,3.7,7.5,7.5,12.8,11.1c5.2,3.6,11.9,7.2,19.5,10.5c3.8,1.6,8,3.2,12.6,4.7s9.3,2.9,14.5,4.2c10.7,2.4,22.2,4.5,35.5,5.1
					c10.4,0.8,18.2,0.4,23.6-0.1c5.4-0.4,8.5-1.1,10.1-1.9c3.2-1.7,0.6-4.2-3-8.2c-7.2-7.6-12.3-15-17-20.9
					c-4.6-6.3-8.5-11.8-12.3-16.4c-3.8-5-7.4-9.2-11.2-13.1c-3.9-4.1-7.9-7.7-12.4-11.3c-14.9-12.1-30.8-18-44.5-18.6
					C2612.9,739,2602.2,743.8,2595.9,751.8z"/>
			</g>
			<g>
				<path class="st4" d="M2739.5,609.9c-8.5,0.4-16.9,3.1-24,7.6c-3.5,2.3-6.7,5-9.5,8.1c-2.9,3.2-5.4,6.9-7.3,11.1
					c-7.7,16.8-7.1,41.8,6.3,82.1c5.5,16.3,8.2,23.9,11,26.4c2.7,2.4,5.1-0.3,9.1-4.4c8-8.2,14.7-15.4,20.4-22s10.3-12.6,14.2-18.2
					c3.8-5.7,6.9-11,9.5-16.3c2.5-5.4,4.4-10.7,6-16.4c4.9-18.8,1.8-34.2-5.7-44.1C2762.1,613.6,2751.1,609.2,2739.5,609.9z"/>
			</g>
			<g>
				<path class="st4" d="M2617.4,1600.2c-18.4-41.5-42.4-153.3,54-389.8c78-191.5,69.5-475-16.7-551.6l10.6-8
					c43.8,38.9,70.6,127.4,73.6,242.7c2.9,111-17.2,230.9-53.8,320.8c-123.4,302.7-45.1,398.1-44.3,399l-11.6,7
					C2628.3,1619.1,2623.2,1613,2617.4,1600.2z"/>
			</g>
			<g>
				<path class="st4" d="M2538.4,581.7c-2.7,14.1,7.3,29,23.7,40c2,1.5,4.1,2.9,6.5,4.1c2.2,1.4,4.5,2.8,7.2,4
					c2.5,1.4,5.1,2.7,8.1,4c1.4,0.7,2.9,1.4,4.4,2.1c0.8,0.4,1.6,0.7,2.4,1c0.8,0.4,1.6,0.8,2.4,1.2c6.7,2.9,14.3,6.7,23.4,11.1
					c9.1,4.4,19.4,10.1,31.3,16.3c19.1,10.3,28.2,15.5,32.3,15.8c4.2,0.5,3.3-3.3,2.3-9.3c-3.9-23.5-9-41.3-17-56.2
					c-8-14.8-18.8-26.7-33.9-37.1c-12.5-8.4-25.5-13.4-37-16c-5.7-1.3-11.2-1.8-16.1-2.1c-5-0.2-9.5,0.3-13.5,0.9
					c-4.1,0.6-7.6,1.7-10.7,3c-3.1,1.3-5.8,2.9-8,4.7C2541.8,572.7,2539.2,577,2538.4,581.7z"/>
			</g>
		</g>
	</g>
</g>
<polyline class="st6" points="144.7,1361.1 144.7,139.2 1729.4,139.2 "/>
<polyline class="st6" points="1176.5,1647.8 2739.2,1647.8 2739.2,432.7 "/>
</svg>
