<?xml version="1.0" encoding="utf-8"?>
<!-- Generator: Adobe Illustrator 23.1.1, SVG Export Plug-In . SVG Version: 6.00 Build 0)  -->
<svg version="1.1" id="Layer_1" xmlns="http://www.w3.org/2000/svg" xmlns:xlink="http://www.w3.org/1999/xlink" x="0px" y="0px"
	 viewBox="0 0 1800.2 2888.2" style="enable-background:new 0 0 1800.2 2888.2;" xml:space="preserve">
<style type="text/css">
	.st0{fill:#F7F7F7;}
	.st1{opacity:0.2;}
	.st2{fill:#62B9AD;}
	.st3{opacity:0.5;}
</style>
<g id="BG">
</g>
<rect x="0" y="7.9" class="st0" width="1800.2" height="2880.3"/>
<g class="st1">
	<g>
		<g>
			<path class="st2" d="M1800.2,725.7c-88.3,273.5-252.9,608-559.6,883l8.1,13.3c295-264.5,459.7-583.7,551.5-852V725.7z"/>
		</g>
		<path class="st2" d="M1800.2,28.3c-20.5,0-41.1,3.9-63.2,12.8c-8,3.4-16.3,7.9-25,13.1c-8.9,5.2-18,11.1-27.3,17.5
			c-18.4,12.5-38.3,27.5-57.3,41.1c-19.2,13.9-38.1,27.8-55.8,37.5c-17.6,11-34.2,18.2-49.8,19.1c0,0,7.6,5.3,20.3,12.6
			c12.7,7.5,30,16.4,50,25.3c10.1,4.6,20.9,8.9,32,12.5c11.1,3.5,22.7,6.4,35,8.5c12.2,1.9,24.7,2.6,37.4,1.7
			c13.1-1,26.3-3.6,39.5-8.5c13.1-4.7,26.3-11.3,38.2-18.1c9-5.1,17.5-10.9,25.7-17.1v-158H1800.2z"/>
		<path class="st2" d="M1800.2,278c-10.1,0-20.6,0.5-31.3,1.7c-24.3,2.4-49.6,9-74.2,22.1c-8.8,4.6-17.8,10.6-27.2,17
			c-9.4,6.2-19,13.1-28.8,20.5c-19.6,14.8-40,31.3-60.3,46.8c-40.8,29.6-82.1,54-114.7,53.4c0,0,28.7,24.2,73.4,42.2
			c11.2,4.5,23.4,8.6,36.3,11.9c13,3.4,26.7,5.8,40.6,6c28,1,58.1-3.3,87.6-16.5c29.4-13.5,54.7-32.3,77.1-51.4
			c7.5-6.5,14.6-13.2,21.4-19.8L1800.2,278L1800.2,278z"/>
		<path class="st2" d="M1800.2,562.2c-4.5-1.3-9.3-2.4-14.4-3.4c-9.8-1.9-19.7-2.4-30.7-2.5c-11,0-21.1,1.1-32.2,3.1
			c-10.6,1.9-20.5,4.6-30.5,8.5c-4.6,1.6-9.2,3.5-13.7,5.8c-2.2,1.1-4.5,2.4-6.7,3.7c-2.1,1.1-4,2.2-6.1,3.4
			c-2.8,1.7-5.7,3.8-8.6,6.1c-2.6,2.1-5.2,4.2-8,6.4c-2.4,2-5,4.3-7.6,6.9c-1.4,1.2-2.4,2.8-4.3,3.8c-1.8,1-3.7,2-5.6,3
			c-7.7,4.4-15.7,9-23.8,13.6c-3.9,2.5-8.8,4.5-13.5,6.6s-9.4,4.1-14.1,6.1c-18.5,8.1-38.4,14.7-55.9,18.3
			c-17.9,3.8-34.6,5.2-48.7,0.4c0,0,5.7,7.8,15.4,19.3c9.9,11.7,22.9,26.2,39.1,42c8.1,7.8,17,15.5,26.5,22.6s20.7,13.4,32.1,18.7
			c5.8,2.6,11.7,5,17.9,7c6.8,1.6,13.9,2.7,21.1,3.5c14.7,0.9,28.5,2.6,46.9-4.8c35.6-12.3,56.1-32.7,74.3-52.5
			c17.1-20,29.7-40.4,40.9-58.2c3.4-5.6,6.7-10.8,10-15.8v-71.6H1800.2z"/>
		<path class="st2" d="M1751.1,848.6c0,0-6.7-1.9-17-4.8c-4.8-1.2-11.1-3.6-17.7-5.9c-3.3-1.1-6.6-2.3-10.1-3.5
			c-3.7-1.3-7.5-2.7-11.3-4.1c-30.8-10.6-68.5-22.3-109.6-12c-29.1,7.5-66.4,28.6-104.2,43c-37.4,14.5-76.1,22-98.6,5.5
			c0,0,3.1,8.8,10.1,22.4c7.1,13.4,18.7,31.3,34.6,48.5c31.5,34.6,80.8,66.5,136.1,58.1c55.1-7.9,100.6-41.9,131.2-75.2
			c7.7-8,14.5-16.7,20.4-24.6c6-7.5,11.1-15.3,15.4-21.9c2.2-3.3,4.2-6.2,6.2-8.9c1.9-2.8,3.5-5.5,5.1-7.7
			C1745,853,1748,850,1751.1,848.6z"/>
		<path class="st2" d="M1800.2,1001.7c-8.4-6.1-16.6-11.9-24.4-17.9c-13.6-10.4-25.5-21.4-33.2-32.6c-2-2.8-4-5.6-5.4-8.3
			c-1.3-2.7-2.3-5.4-3.2-7.9c-1.7-5.1-2.4-9.7-1.9-13.4c0,0-4.8,4.6-11.7,15.6c-1.7,2.7-3.6,5.9-5.4,9.5c-1.6,3.5-3.2,7.3-4.8,11.7
			c-3.2,8.6-6.6,19.3-8.2,30.2c-8.5,45.4-0.6,107.6,29.9,148.7c16.6,22.9,42.2,42,68.2,59.1L1800.2,1001.7L1800.2,1001.7z"/>
		<path class="st2" d="M1630,1099.5c0,0-6.7-1.8-16.9-4.1c-10-1.9-24.2-6-38.8-9.5c-15-4.2-30.7-8.1-46.9-10.8
			c-15.9-2-32.6-3.3-50,1.7c-24.7,6.5-58.6,24.5-94.8,33.8c-35.8,9.7-72.8,10.5-93.4-8.5c0,0,2.3,9.2,7.7,23.5
			c5.4,14.4,14.1,33.5,27.1,53c13,19.3,30.2,39.3,52,53.4c21.6,14.3,47.7,23.5,75.9,21c28.2-2.4,54.3-12.2,76.4-26.9
			c22.1-13.9,40-33,53.7-50.6C1609.7,1139.1,1618.4,1104.9,1630,1099.5z"/>
		<path class="st2" d="M1627.1,1150.2c0,0-3.8,6.2-8.9,17.8c-2.6,5.8-5.4,13.1-7.8,21.4s-5.1,18.2-6.7,28.5
			c-7.5,41.9-4.7,99.6,22.2,144.1c19,31.8,53.9,60.8,86,86.7c32.2,26.2,61.8,49.5,72.4,78.6c0,0,1.6-9.7,3.3-25.1
			c1.6-15.3,3.6-36.6,4.2-59.7c1.1-46.7-2.2-100.4-27.4-140.7c-25.6-40.4-58.7-66.8-86.9-90.8
			C1649.3,1187.5,1627.5,1165.2,1627.1,1150.2z"/>
		<path class="st2" d="M1455.2,1357.3c0,0-16.7-22-40-42.4c-23.6-21.2-53-40.9-85.7-38.2c-5.9,0.5-12.2,2.2-18.8,4.1
			c-6.6,1.8-13.6,4.2-20.8,6.9c-14.5,5.8-29.7,11.3-45.1,16.6c-15.3,5-30.4,7.9-44.1,8.5c-13.5-0.3-25.5-3.5-34.1-11.5
			c0,0,1.9,8.8,6.2,22.3c4.4,13.4,11.2,32,21.5,50.4c10.2,17.9,23.7,37.5,40.4,51c8.3,6.9,17.4,13,27.1,17.2
			c9.7,3.9,20.1,6.3,30.9,6.5c43.4,0.1,80.6-23.3,107.5-47.1c6.8-5.9,13-11.6,18.6-16.9c5.6-5.5,10.8-10.6,15.2-14.9
			C1443.1,1361.5,1450,1356.3,1455.2,1357.3z"/>
		<path class="st2" d="M1467.8,1371.5c0,0-14.9,22.2-25.5,57c-4.8,16.9-8.7,37.2-8.9,57.6c-0.1,20.1,3,41.4,11.5,59.5
			c12.2,26.7,37.6,52.2,59.3,79c10.7,13.3,20.3,26.9,27.1,40.5c6.2,13.6,9.6,27.2,8,39.6c0,0,5.5-6,13.1-16.8
			c7.6-10.7,17.6-26.6,26.1-45.9c16.7-37.9,27.2-91.2,9.5-132.6c-17.3-41.5-47.5-67.2-72.6-88.3c-6.4-5.2-12.6-10.2-18.3-14.8
			c-5.5-4.7-10.5-9.1-14.7-13.3C1473.6,1384.9,1468.1,1377.6,1467.8,1371.5z"/>
		<path class="st2" d="M1307.8,1561.7c0,0-6.1-2.2-15.6-5.1c-9.6-2.9-22.3-6.1-36.2-9c-28.8-6.6-60.1-10.3-88.7,5.7
			c-5.1,2.9-10.3,7.2-15.7,11.8c-5.5,4.2-11.2,9.1-17.2,14.4c-11.8,11.4-24.7,21.6-38.2,31.9c-6.7,5.5-13.6,9.1-20.4,12.7
			c-6.8,3.5-13.7,6.6-20.3,8.8c-13.1,2.9-25.5,2.3-34.9-3.5c0,0,2.9,8.2,9.2,20.5c3.2,6.2,7.2,13.3,12.3,21
			c5.1,7.5,11.3,16.4,18.3,23.4c7.1,7.3,15.2,14.6,24.3,21.1c4.5,3.2,9.3,6.5,14.2,9.1c4.9,2.4,9.9,4.6,15.1,6.4
			c10.4,3.6,21.6,6.4,33,6.5c11.2-0.3,22.7-2.4,34-6.7c45.2-19.3,75.5-60,92.7-97c4.4-9.1,8.2-17.8,11.6-25.6
			c3.3-8.1,5.9-16,8.4-22.4C1298.6,1572.6,1302.7,1564,1307.8,1561.7z"/>
	</g>
	<g class="st3">
		<g>
			<path class="st2" d="M1800.2,555.5c-6.7-11.3-12.4-20.1-16.9-26.6c-6.4-9.3-10.6-14.1-13.5-15.8c-5.7-3.3-5.8,6.2-6.6,20.6
				c-1.2,28.2-3.6,52.6-5.1,73.9c-1.9,21.4-3.6,40-4.6,56.8c-1.4,17.1-2.1,32.4-2.2,47.3c-0.4,15-0.2,29.6,0.6,44.8
				c2.2,49.9,11.2,87.2,23.9,111.8c7.1,13.7,15.4,23.2,24.3,28.6L1800.2,555.5L1800.2,555.5z"/>
		</g>
		<g>
			<path class="st2" d="M1476.1,566.7c2.6,14.5,9.7,27.8,20.9,37.8c11.3,10,26.4,16.9,44.6,18.8c4.5,0.6,9.2,0.8,14.1,0.7
				c2.4-0.1,5-0.2,7.5-0.4c2.5-0.1,5-0.3,7.6-0.6s5.2-0.7,7.9-1.1c2.5-0.5,6.2-1.2,6.7-1.6c0-0.3,5.7-0.9,8.9-1.6
				c3.7-0.7,7.2-1.5,10.8-2.5c14-3.8,28.2-9.4,43.4-16.4c15.2-7.1,31.1-15.8,48.3-24.9c13.9-7.2,24.2-11.4,31.7-13
				c3.8-1,7.2-0.8,9.7-0.8c1.2,0.2,2.3,0.2,3.2,0.2c0.9,0.1,1.6,0.1,2.2,0c2.5-0.4,3.3-2.8,2.7-7c-0.7-4.1-3.4-9.3-8.2-14.5
				c-5.1-5.4-10-9.2-14.8-12.6c-4.8-3.4-9.3-6.2-13.8-8.9c-8.8-5.2-17.1-9.3-24.8-12.9c-15.5-7.1-29-12-41.3-15.9
				c-12.3-3.8-23.4-6.4-34-8.2c-5.3-0.9-10.4-1.6-15.3-2.2c-2.3-0.3-4.6-0.5-6.9-0.8c-1.1-0.1-6.7-0.9-10.7-0.4
				c-2.6,0.2-5.1,0.3-7.6,0.4c-2.3,0.2-4.6,0.4-6.9,0.6c-4.5,0.5-8.9,1.1-13.1,1.8c-8.2,1.8-15.7,4.1-22.5,6.9
				c-13.6,5.6-24,13.2-32.1,21.6C1478.6,526.3,1472.5,547.1,1476.1,566.7z"/>
		</g>
		<g>
			<path class="st2" d="M1560.1,1020.6c11.8,3.6,24.7,2.3,37-4.6c6.2-3.5,12.1-8.3,17.7-14.6c5.7-6.4,11-14.3,15.7-23.8
				c9.5-19.1,16.9-44.9,19.8-78.5c0.8-8.3,1.1-17.2,1.1-26.6c0-9.4-0.2-19.1-0.9-29.3c-1.8-20.7-4.5-42.7-10.5-66.3
				c-4.3-18.8-8.9-32.3-12.3-41.5s-6-14.2-8.3-16.4c-4.4-4.4-7.2,2.5-11.9,12.6c-8.8,19.9-18,36.1-25.4,50.3
				c-7.8,14.2-14.7,26.5-20.3,37.8c-6.1,11.4-11.1,21.8-15.4,32.2c-4.6,10.4-8.5,20.9-12.1,32c-12,36.7-13.9,68.4-8.5,92.4
				C1531.5,1000.1,1544.1,1015.6,1560.1,1020.6z"/>
		</g>
		<g>
			<path class="st2" d="M1282.4,770.6c5.2,13.5,14.8,24.7,26.9,32.3c12.4,8,27.5,12.3,46.3,12.8c18.8,0.3,41.1-3.7,68-12.6
				c13.6-4.6,28.2-10,44.4-17c16.1-6.5,33.7-14.4,53.5-22.7c7.9-3,15-5.9,21.1-8c6.2-2.1,11.4-3.9,15.7-5.4c8.7-2.6,14-4.8,16.6-7
				c5.1-4.4-0.9-9-10.8-16.8c-19.5-14.6-37.8-24.7-54.3-32.8c-8.3-3.8-16.2-7.3-23.7-10.2c-7.5-2.7-14.8-5.3-21.7-7.3
				c-27.8-8.1-51.2-10.2-77-8.2c-42.2,3.1-73.4,20.8-90.8,41.2c-4.4,5.2-7.9,10.4-10.6,15.8c-2.7,5.5-4.6,10.9-5.7,16.2
				C1277.9,751.4,1278.9,761.4,1282.4,770.6z"/>
		</g>
		<g>
			<path class="st2" d="M1335,1136.4c10.2,8.1,22.4,12,35.7,9.5c6.6-1.3,13.6-4.2,20.6-8.9c6.6-4.8,13-11.3,19.2-19.8
				c6.5-8.4,11.5-18.6,16.2-30.5c4.9-12.1,8.1-25.2,10.7-40.3c1.4-7.6,2.2-15.2,2.7-23.3c0.6-8.1,0.9-16.7,1-25.5
				c0-8.7-0.3-17.9-0.8-27.6c-0.6-9.8-1.2-19.4-2.2-30.1c-1.8-17.3-2.4-29.5-3.4-38.7c-1-9.1-2-14.8-3.5-17.8
				c-2.8-6-7.1-1.5-14.2,5.4c-6.9,6.9-13.8,13.4-19.5,19.8c-5.8,6.4-11.2,12.5-16.2,18.3c-10,11.7-17.9,22-25.1,31.9
				c-6.9,9.5-12.7,18.4-17.8,27.4c-5.1,8.6-9.5,17.1-13.6,26.4c-13.6,29.1-16.8,52.8-14.6,73.6
				C1312.3,1106.6,1321.2,1125.5,1335,1136.4z"/>
		</g>
		<g>
			<path class="st2" d="M1082.9,893.9c3.5,14.2,11.1,27,21.9,36.5c5.4,4.7,11.3,9,17.9,12.1c3.3,1.6,6.5,3.2,10,4.4
				c1.7,0.6,3.5,1.2,5.3,1.6c1.7,0.5,3.4,1.2,5.2,1.6c14.3,3.6,28.7,4.3,49.5,3.5c1.3-0.1,2.6-0.2,3.9-0.3c1.4-0.1,2.3-0.4,4.9-0.1
				c2.3,0.2,4.6,0.3,6.8,0.4c2.2-0.1,4.4-0.1,6.6-0.1c8.5-0.4,16.6-1.6,24.7-3.3c16.3-3.5,32.8-9,50.7-15
				c14.4-4.8,24.9-7.4,32.6-8.5c4-0.7,7-0.6,9.7-0.9c2.5,0.1,4.6,0.1,6.2-0.2c3.1-0.5,4-2.4,2.9-6.2c-0.6-1.8-1.7-4.5-3.1-6.7
				s-3.3-5-5.4-7.5c-8.3-10.2-16.4-17.3-24-23.8c-7.7-6.5-14.8-11.9-21.6-16.9c-13.5-9.8-25.3-17.3-35.7-23.7
				c-10.3-6.4-19.1-11.5-25.1-15.9c-0.2-0.2-1.3-0.6-1.9-0.9l-2.2-1l-4.4-2c-3-1.3-6-2.5-9-3.7c-6.1-2.5-12.3-3.8-18.7-5.5
				c-21.2-4.6-41.2-3.4-56.6,1.8c-7.9,2.3-14.5,5.8-20.4,9.4c-6,3.6-10.7,7.9-14.9,12.3c-8.4,8.8-13.1,18.8-15.7,28.7
				C1080.4,874.2,1080.5,884.3,1082.9,893.9z"/>
		</g>
		<g>
			<path class="st2" d="M1151.1,1341.6c10.8,6.7,23.7,8.2,38,1c6.7-3.6,13.7-9.5,20.4-17.5c6.2-8,12.5-18.4,17.2-30.6
				c9.8-24.5,15-56.7,13-92.9c-0.9-18.2-3.7-37.2-8.1-57.4c-4.5-20.1-10.7-41-18.4-63.3c-12.6-35.8-18-52.7-22.4-57.8
				c-4.3-5-7.2,2.1-12,13.4c-9.3,22.1-16.5,41.7-22.6,58.8c-6.1,17.2-11.1,32-15.2,45.4c-8.3,26.8-13.4,48-17.5,70.5
				c-6.7,36.9-6.5,61.4-1.5,82.4c1.2,5.1,3,10.3,4.7,14.9c1.8,4.6,3.9,9,6.3,13.1C1137.7,1330,1143.8,1337,1151.1,1341.6z"/>
		</g>
		<g>
			<path class="st2" d="M809.5,1147.1c4.8,29,29.3,53.2,71.8,55.5c5.3,0.3,10.9,0.2,16.8-0.2c5.8-0.4,11.7-1.1,17.9-2.3
				c12.5-2.4,26-6.3,40.4-12.1c7.3-3,14.5-6.2,22.7-10.3c2.4-1.2,4.8-2.4,7.3-3.6c2.2-1.2,4.1-2.4,6.1-3.6c4.1-2.5,8.1-5.1,12-7.8
				c15.9-10.8,31.7-23.6,49.1-37c28-21.8,43.5-27,48.4-32c2.5-2.5,2.1-4.7-0.4-7.1c-1.2-1.2-3-2.5-5.1-3.9c-2.2-1.2-4.7-2.5-7.5-4
				c-22.4-10.4-42.6-14.6-60.1-17.8c-17.5-3-32.6-4.5-45.8-5.4c-3.3-0.2-6.5-0.4-9.6-0.6c-1.5-0.1-3-0.2-4.5-0.2l-2.2-0.1l-1.7-0.2
				l-3.4-0.4l-4.3-0.2c-3-0.1-5.9-0.2-8.8-0.3c-11.6-0.2-22.9,0.4-34.7,1.6c-38.9,4.3-65.6,17.3-83.1,34.4
				C813.5,1106.4,806.2,1127.4,809.5,1147.1z"/>
		</g>
		<g>
			<path class="st2" d="M944.7,1468c10.5,7.4,22.9,10.6,36.5,6.1c6.6-2.3,13.1-6.5,19.7-12.7c6-6.2,12.3-14.6,17-24.5
				c9.9-20.1,15.4-46.9,14.4-76.4c-0.4-14.9-2.4-30.2-5.7-46.6c-3.4-16.3-8-33.3-13.5-52.2c-8.7-30.5-10.9-46.3-14.5-51.8
				c-3.4-5.6-7.2-0.7-13.6,7.2c-12.3,15.7-21.9,31.2-29.6,44.8c-3.9,6.9-7.2,13.3-10.4,19.5c-3.1,6.1-5.8,11.9-8.4,17.5
				c-9.9,22.1-15.7,39.6-20.3,57.7c-7.5,29.6-6.5,48.4-1.1,66.4c2.8,9,6.5,17.3,11.4,25.1C931.6,1456,937.6,1463,944.7,1468z"/>
		</g>
		<g>
			<path class="st2" d="M624.2,1403.9c6.9,12.2,16.9,22.1,27.6,28.6c5.6,3.5,11.3,6,17.4,7.7c6.3,1.8,12.5,2.4,19.6,2.3
				c13.9-0.6,29.7-5.6,49.3-16.3c19.6-10.8,43.1-27.3,72.6-50.1c24-18.3,36.1-26.4,39.3-32.1c3.3-5.7-2-8.5-10.4-13.4
				c-33.1-18.7-59.2-28.8-81.7-34.1c-22.6-5.2-41.7-5.6-62.7-1.6c-34.4,6.5-59,26.9-70.4,48.7c-5.8,10.7-8.3,22.1-8.2,32.4
				C616.7,1386.2,619.5,1395.6,624.2,1403.9z"/>
		</g>
		<g>
			<path class="st2" d="M796.6,1749.9c11.9-3.1,23.2-10.7,31.9-21.9c4.4-5.6,8.2-12.1,11.2-19.5c3.1-7.6,5.4-16.2,6.7-25.8
				c1.3-9.4,1.6-20.5,0.8-32.4c-0.9-11.7-3.2-25.3-6.8-39.6c-1.8-7.1-4.1-14.7-6.9-22.5c-2.8-7.8-5.9-15.8-9.5-24
				c-7.8-16.7-16.9-34-29.6-51.3c-9.5-13.9-18-22.9-23.9-28.9c-6-5.9-9.9-8.8-12.6-9.5c-5.4-1.4-5.8,5.6-7.1,16
				c-2.1,20.2-5.9,37.5-8.5,52.2c-3.1,15-5.8,28-7.8,39.7c-2.3,12-3.9,22.8-4.8,33.2c-1.1,10.8-1.5,21.3-1.4,32.2
				c0.3,36.4,9,64.8,22.2,82.4C763.7,1748,780.5,1754,796.6,1749.9z"/>
		</g>
		<g>
			<path class="st2" d="M477,1785.3c9.1,9.9,20.9,16.2,33.6,18.2c6.3,1,12.9,0.9,19.6-0.5c6.9-1.2,13.9-3.6,20.9-7.6
				c28.5-15.6,58.6-53.7,94.5-130.3c14.4-31,21.1-45.9,21.3-52.9c0.3-6.9-5.5-5.8-14.7-4.6c-18.1,2.3-33.7,5-47.6,7.8
				c-13.8,2.9-25.8,6.2-36.7,9.6c-10.8,3.8-20.4,7.9-29.6,12.6c-9.1,5-17.6,10.6-26.2,17.1c-28.1,22-43.9,48.9-48.5,72.9
				C458.9,1751.9,464.6,1772.1,477,1785.3z"/>
		</g>
		<g>
			<path class="st2" d="M1800.2,439.8c-27.5,74.3-133.7,272.9-525.7,510.1c-147.4,89.2-315.1,243.5-448.5,412.9
				c-138.6,175.9-220.1,340.9-223.7,452.8l20.5,1c7-220.2,346.7-654.2,660.8-844.3c338.3-204.7,467.5-380.3,516.6-477.9V439.8z"/>
		</g>
		<g>
			<path class="st2" d="M645.7,2074.5c20.1-17.8,28.3-52.2,25.2-88.9c-0.2-4.6-0.7-9.4-1.5-14.1c-0.6-4.8-1.2-9.7-2.4-14.7
				c-0.8-5.1-1.9-10.3-3.3-15.9c-0.5-2.8-1.1-5.7-1.9-8.6c-0.4-1.5-0.8-3-1.1-4.5c-0.3-1.6-0.6-3.1-1-4.7
				c-3.2-12.6-6.3-27.5-10-45.3c-3.8-17.8-7.2-38.9-11.6-62.7c-6.6-38.8-9.5-57.7-13.2-63.4c-3.6-5.8-7.4,0.9-13.7,11.1
				c-24.9,40-41.7,72.7-51.9,104.8c-10.2,32-13.9,63-11.3,97c2.2,27.9,9.3,51.4,17.7,69.3c4.3,8.9,9.1,16.4,13.7,22.9
				c4.8,6.3,9.9,11.3,14.7,15.3c4.8,4.1,9.8,6.9,14.6,8.7s9.4,2.8,13.8,2.8C631.2,2083.7,639.1,2080.5,645.7,2074.5z"/>
		</g>
	</g>
</g>
<g class="st1">
	<g>
		<g>
			<path class="st2" d="M1620.4,132.4l5.9,6.3c-0.8,1-78.6,106-217.9,198c-128.5,84.9-337.3,175.8-602,127.2l1.2-9.4
				c262.4,48.2,469.4-41.9,596.8-126C1542.6,237.4,1619.6,133.4,1620.4,132.4z"/>
		</g>
		<path class="st2" d="M1606.8,158.6c0,0-7.6-18.1-19.6-37.6c-5.9-10.7-13-21.3-21.6-31.6c-8.6-10.6-18.6-19.7-31-27.2
			c-4.4-2.6-9.3-4.8-14.6-7c-5.4-2.3-11.1-4.4-17-6.4c-11.7-4-24.8-7.7-37.1-11.6c-12.5-3.8-24.8-7.5-35.3-12.3
			c-10.9-4.2-20-9.5-26.6-16.9c0,0,1.3,5.9,4,15.2s6.7,21.5,11.9,35c2.6,6.9,5.5,14,8.9,20.9c3.3,6.9,7.1,13.8,11.4,20.8
			c4.3,6.8,9.2,13.3,14.7,19.2c5.6,6.1,11.9,11.5,18.9,16.1c6.9,4.5,14.5,8.4,21.6,11.5c7.2,3.2,14.4,5.6,21.7,7.4
			c7.2,1.8,14.2,3,20.9,3.9c6.8,0.8,13.4,0.8,19.5,0.8s11.7-0.2,16.9-0.5c5.3-0.6,10.1-1.1,14.3-1.6
			C1597.1,156,1603.2,156.1,1606.8,158.6z"/>
		<path class="st2" d="M1599.5,169.1c0,0-11.2,13.1-23.4,27.5c-3.3,4-6.6,8.2-9.8,12.8c-3.4,5-6.5,10-9.4,16.2
			c-2.9,6.4-5.6,12.7-7.5,20.9c-1,4-1.9,8-2.5,12.3c-0.5,4.6-0.9,9.2-1,13.9c-0.4,6.6,0.7,14.1,1.7,21.5c0.3,1.8,0.6,3.7,0.9,5.6
			c0.3,1.6,0.7,3,1.1,4.5c0.8,3,1.6,6,2.4,9.1c1.7,6.2,3.6,12.3,5.6,18.9s4,13.2,6,19.6c3.8,13,7.8,25.8,9.8,37.4
			c2.5,11.7,3.4,22.4,1.6,31.7c0,0,3.5-3.9,8.7-10.6s11.8-16,18.7-27c13.7-22.3,27.4-49.9,25.4-84.9c-1-12.1-3.5-23.7-5.6-37.5
			c-1.3-6.7-2.3-14-3.8-20.6c-1.4-7.1-2.9-13.7-4.5-20.2c-1.7-6.5-3.3-12.4-5-17.9c-1.8-5.4-3.5-10.3-4.9-14.6
			C1600.9,179.3,1598.6,173.3,1599.5,169.1z"/>
		<path class="st2" d="M1517.1,249.8c0,0-7.5-19-22.2-41.1c-7.3-11.1-16.5-22.8-27.3-33.7c-10.7-11-23.2-20.9-37.6-27.7
			c-5.1-2.5-10.8-4.5-16.8-6.5c-5.9-2.1-12.1-4.1-18.6-5.9c-12.9-3.7-26.7-7-40.2-10.8c-26.5-8.2-51.5-18.6-64.6-35
			c0,0,3.6,24,15.7,53.5c3,7.4,6.6,15.1,10.8,22.8c4.1,7.8,8.9,15.5,14.5,22.6c11.1,14.3,24.8,27.4,41.2,36.7
			c16.5,9.1,33.1,13.9,48.6,17.2c7.8,1.6,15.3,2.7,22.5,3.4c7.2,0.6,14.2,0.7,20.7,0.8C1489.9,246.2,1509.3,243.8,1517.1,249.8z"/>
		<path class="st2" d="M1486.8,270c0,0-3.2,3.1-8.1,7.9c-4.5,4.8-11.8,11.3-18.9,18.7c-14.7,15.1-33.2,35.2-41.8,70.1
			c-13,53.2,7.9,130-8.1,165.5c0,0,17.2-10.7,35.5-30.2s37.8-46.4,44-79.1c6-30,7.7-66.3,4.8-95.2c-0.8-7.3-1.6-14-2.5-20.1
			c-1.1-6.1-2.1-11.7-2.9-16.6C1487,281.4,1485.4,274.5,1486.8,270z"/>
		<path class="st2" d="M1396.7,338.9c0,0-0.5-4.5-2.7-12.3c-1.1-3.8-2.5-8.8-4.7-13.7c-2.2-4.8-4.9-10.2-8.3-15.9
			c-3.4-5.6-7.2-10.7-11.7-16.2c-4.5-5.4-8.9-10-14.1-14.6c-4.9-4.5-9.9-8.3-15.3-11.7c-2.4-1.6-4.9-3.1-7.5-4.4
			c-1.3-0.7-2.6-1.2-4-1.8c-1.2-0.6-2.4-1.1-3.6-1.6c-1.7-0.7-3.6-1.3-5.5-1.8c-1.7-0.4-3.5-0.9-5.4-1.3c-1.7-0.4-3.5-0.7-5.4-1
			c-1-0.2-1.9,0-3-0.6c-1.1-0.5-2.2-1-3.3-1.6c-4.6-2-9.4-4.1-14.2-6.2c-2.5-0.9-5.1-2.5-7.7-4s-5.2-3-7.8-4.5
			c-10.2-5.8-20.5-13-28.9-20.2c-8.6-7.3-15.8-15-20-23.9c0,0-0.3,6-0.2,15.5c0.1,9.6,0.5,22,1.9,36.5c0.7,7.2,1.7,14.7,3.2,22.3
			c1.5,7.6,3.9,15.7,6.8,23.5c1.5,3.9,3.1,7.8,4.9,11.7c2.2,4,4.7,8,7.4,11.8c5.7,7.7,10.7,15.2,20.7,21.2
			c18.6,12.6,33.8,14.4,47.8,15.4c13.7,0.3,25.6-1.8,36.2-3.4c10.7-1.9,19.9-2.9,27.8-2.9C1387.9,333.7,1393.8,335.6,1396.7,338.9z"
			/>
		<path class="st2" d="M1362.1,363.7c0,0-3.9,0.6-10.6,3.7c-6.4,3.1-15.5,9.2-24.2,18.5c-17.8,18.6-34.1,49.4-37.7,81.6
			c-1.4,11.6-1.1,24.1-0.9,37.1c0,1.7,0,3.3,0.1,5v5.7c0,3.8,0,7.7,0,11.5c0.1,7.8,0.2,15.7,0.3,23.3c0.3,15.8,0.7,31.3,1.3,45.4
			c0,7,0.6,13.8,0.2,20c0,6.3-0.2,12.2-1.3,17.7c0,0,3.5-4.6,8.9-11.7c2.6-3.5,6-7.6,9.6-12c3.5-4.4,7.7-9,11.9-13.8
			c8.4-9.6,17.5-19.4,25.8-31.8c4.1-6.1,8-13.3,11.2-20.7c0.8-1.9,1.6-3.8,2.3-5.7c0.8-2.3,1.6-4.6,2.3-6.9
			c1.5-4.6,2.6-9.8,3.5-14.8c3.4-20,3.1-37.6,1.8-53.7c-1.4-16-3.9-30.5-5.9-43.5s-3.7-24.8-3.6-34.4c0-4.9,0.5-9.1,1.2-12.7
			C1359.5,368.2,1360.6,365.5,1362.1,363.7z"/>
		<path class="st2" d="M1269.9,397.8c0,0-2.1-4.1-5.3-10.4c-1.5-2.9-3.3-6.9-5.2-11.1c-0.9-2.1-1.9-4.2-3-6.4
			c-1-2.4-2.1-4.8-3.2-7.3c-9-19.6-20.4-43-40.6-59.1c-14.4-11.3-36.6-21.2-56.8-34.1c-20.1-12.6-38.3-28.7-42-46.5
			c0,0-1.7,5.1-3.4,14.1c-1.6,9-2.9,22-2.1,36.8c1.2,29.7,10.6,67,35.9,91c25.1,24,55,32.7,78.6,34.3c5.8,0.5,11.5,0.4,16.6,0.1
			c5-0.1,9.6-0.8,13.6-1.3c2-0.2,3.8-0.4,5.5-0.6s3.3-0.5,4.7-0.6C1265.9,396.6,1268.1,396.8,1269.9,397.8z"/>
		<path class="st2" d="M1237.7,418.1c0,0-3.5-0.5-10,0.6c-1.6,0.3-3.5,0.6-5.4,1.2c-1.8,0.6-3.7,1.4-5.9,2.4
			c-4.2,1.9-9.1,4.6-13.5,8.2c-18.7,14.2-36.3,43.5-37.6,75.3c-1.2,22.9,6,50.6,12.6,75.6c6.5,25.1,12.2,48.4,7.1,64.7
			c0,0,3.8-3,9.5-8.5s13.1-13.7,20.6-23.5c14.9-19.9,29.5-45.9,30.1-74.2c0.5-28.6-6.5-52.7-10.6-74.9c-2-11-3.2-21.3-2.6-29.7
			c0.1-2.1,0.2-4.2,0.6-6c0.4-1.7,0.9-3.3,1.4-4.8C1235,421.6,1236.3,419.4,1237.7,418.1z"/>
		<path class="st2" d="M1136.6,440c0,0-2.1-4-5.5-10c-3.4-5.8-7.8-14.4-12.6-23.1c-4.7-9.1-9.8-18.5-15.4-27.6
			c-5.8-8.7-12.2-17.5-20.9-24.1c-12.2-9.6-32.1-19.1-49.9-33.2c-17.8-13.8-33.1-31.7-35.1-49.7c0,0-2.1,4.9-4.7,13.4
			c-2.6,8.5-5.5,20.6-6.7,35c-1.2,14.3-0.8,30.9,3.3,47.4c4,16.5,11.5,33.1,23.9,46.1c12.3,13,26.2,21.9,40.1,26.9
			c13.7,5.3,27.3,6.4,38.8,6C1115.1,446,1130.1,436.5,1136.6,440z"/>
		<path class="st2" d="M1118.4,459.2c0,0-3.6,0.6-9.6,2.9c-3,1.1-6.6,2.7-10.3,4.9c-3.8,2.2-8.2,4.9-12.3,8.3
			c-17.1,13.4-35.3,38.2-39.2,69.6c-2.9,22.4,1.5,51.4,6,77.8c4.4,26.6,8.5,50.7,3.1,67.8c0,0,3.9-3.1,9.7-8.6
			c5.8-5.4,13.7-13.1,21.7-22.3c16.1-18.5,32.7-42,36-70.8c3.1-29.1-1.5-56.2-5-80C1115,485.3,1113.6,465.5,1118.4,459.2z"/>
		<path class="st2" d="M979.1,458.4c0,0,0.5-17.2-2.1-37c-2.5-20.3-7.8-42.9-22.1-57.9c-2.6-2.7-5.7-5.1-9-7.6s-6.9-5-10.8-7.5
			c-7.8-4.8-15.9-10.1-23.9-15.6c-7.9-5.5-15-11.8-20.8-18.4c-5.4-6.8-9.2-14-10-21.5c0,0-2.2,4.5-4.9,12.2
			c-2.7,7.6-6.2,18.6-8.2,31.1c-1.8,12.4-2.9,27-0.7,40.8c1.1,6.9,2.7,13.9,5.3,20.4c2.6,6.4,6.1,12.5,10.4,18
			c17.7,21.5,40.6,30.4,59.5,34c4.7,1,9.2,1.7,13.2,2.3c4.1,0.5,7.9,1,11.2,1.5C972.8,454.2,977.3,455.5,979.1,458.4z"/>
		<path class="st2" d="M979.5,470.4c0,0-13.5,1.6-29.5,10.6c-7.6,4.5-16,10.8-22.9,19c-6.8,8.1-12.6,18.3-15.2,29.9
			c-4,16.9-2.2,39.8-2.3,61.5c-0.1,10.7-0.8,21-2.5,29.9c-2,8.6-5.2,15.8-10,20.1c0,0,4.2,0.3,11-0.4c6.7-0.6,16.1-2.1,26-5.8
			c19.5-7.2,41.6-23.7,48.3-49.3c6.9-25.4,3.2-50.9,0-71.9c-0.9-5.3-1.7-10.4-2.5-15.1c-0.7-4.6-1.2-8.9-1.6-12.7
			C977.4,478.8,977.5,473.1,979.5,470.4z"/>
		<path class="st2" d="M850.7,468.7c0,0-1.7-3.9-4.7-9.8c-2.9-6-7-13.5-11.7-21.6c-9.5-16.9-21-33.9-38-41.6
			c-3.1-1.3-6.6-2.1-10.3-3c-3.6-1-7.6-1.9-11.8-2.6c-8.6-1.2-17.3-3.4-26.2-5.9c-4.6-1.1-8.6-3-12.6-4.9s-7.8-4.1-11.2-6.5
			c-6.3-5.3-11.1-11.7-13-18.7c0,0-1.6,4.7-3.1,12.9c-0.8,4.1-1.5,9-2,14.7c-0.5,5.6-0.9,12.2-0.4,18.6c0.4,6.5,1.3,13.4,2.8,20.6
			c0.8,3.5,1.6,7.3,2.7,10.7c1.2,3.4,2.5,6.8,4,10.1c3,6.6,6.7,13.3,11.2,18.9c4.7,5.4,10,10.3,16.1,14.1
			c24.8,14.5,50.8,12.9,70.2,6.4c4.9-1.5,9.3-3.2,13.3-4.7c4-1.7,7.7-3.6,10.9-5C843.3,468.6,847.8,467.1,850.7,468.7z"/>
	</g>
	<g class="st3">
		<g>
			<path class="st2" d="M1280.8,454.2c5.6,5.2,13.1,7.4,21.9,5.7c4.4-0.8,9.1-2.6,14-5.5c4.9-3,9.9-7,15.1-12.2
				c10.3-10.5,21-25.8,30.7-47c2.5-5.2,4.8-10.9,7-17c2.2-6,4.4-12.4,6.5-19.1c3.9-13.7,7.7-28.6,10.2-45.3
				c2.2-13.3,3.2-23.2,3.7-30.1s0.4-11-0.2-13.1c-1.2-4.2-4.4-0.4-9.6,5.1c-9.9,10.9-19.1,19.6-26.8,27.5
				c-7.9,7.8-14.8,14.5-20.9,20.9c-6.3,6.3-11.7,12.2-16.7,18.2c-5.2,5.9-10,12-14.7,18.5c-15.8,21.4-24.7,41-27.7,57.3
				C1270.4,434.3,1273.3,447.2,1280.8,454.2z"/>
		</g>
		<g>
			<path class="st2" d="M1252.3,147c-3.8,7.2-5.4,16.1-4.2,25.7c1.2,9.7,5.1,19.9,11.9,29.7c1.6,2.4,3.5,4.9,5.5,7.2
				c1,1.2,2.1,2.4,3.2,3.5c1,1.2,2.1,2.4,3.3,3.5c1.2,1.2,2.4,2.3,3.6,3.5c1.2,1,2.9,2.6,3.3,2.7c0.1-0.1,2.6,2.5,4.2,3.8
				c1.7,1.5,3.4,3,5.2,4.3c7,5.4,14.6,10.1,23.1,14.8c8.5,4.6,17.9,9,28,13.8c8.1,3.9,13.7,7.3,17.2,10.4c1.9,1.5,3.2,3.2,4.2,4.5
				c0.4,0.6,0.8,1.2,1.2,1.7c0.3,0.5,0.6,0.8,0.9,1.1c1.2,1,2.3,0.5,3.4-1.5s1.7-5.5,1.5-9.9c-0.3-4.7-1-8.7-1.8-12.4
				c-0.8-3.8-1.7-7.1-2.6-10.4c-1.9-6.5-3.8-12.2-5.8-17.5c-3.9-10.5-7.8-19.2-11.5-26.9c-3.7-7.6-7.4-14.2-11.1-20.1
				c-1.8-3-3.7-5.8-5.5-8.4c-0.8-1.2-1.7-2.5-2.5-3.8c-0.4-0.6-2.4-3.7-4.2-5.5c-1.1-1.2-2.2-2.4-3.2-3.6c-1-1.1-2-2.1-3-3.2
				c-2-2.1-4-4-6-5.7c-3.9-3.3-7.8-6.1-11.5-8.3c-7.4-4.4-14.2-6.5-20.3-7.1C1266.9,131.8,1257.4,137.2,1252.3,147z"/>
		</g>
		<g>
			<path class="st2" d="M1134.6,373.3c3.6,7.3,9.3,13.2,16.6,16.4c3.7,1.6,7.7,2.6,12.1,2.8c4.4,0.2,9.3-0.4,14.4-1.9
				c10.3-3.1,21.9-9.9,34.4-22.2c3.1-3,6.2-6.5,9.4-10.3c3.1-3.8,6.3-7.9,9.5-12.4c6.2-9.3,12.5-19.6,17.9-32.2
				c4.6-9.8,7.2-17.5,8.9-23c1.7-5.4,2.3-8.8,2.1-10.8c-0.3-4-3.8-2.5-9.1-0.8c-10.2,3.7-19.4,5.8-27.2,7.9
				c-7.9,1.9-14.8,3.5-20.9,5.3c-6.3,1.6-11.8,3.4-17.1,5.5c-5.4,2-10.5,4.3-15.6,7.1c-17.2,9-28.6,21-34.4,33.4
				C1129.7,350.8,1129.7,363.3,1134.6,373.3z"/>
		</g>
		<g>
			<path class="st2" d="M1105.2,134.1c-2.4,8.1-2.3,17.3,0.1,26.4c2.4,9.4,7.1,18.6,14.6,28.1c7.5,9.4,17.9,18.8,31.9,28.5
				c7.1,4.8,14.8,9.9,23.8,15c8.8,5.3,18.6,10.8,29.4,17.2c4.2,2.7,8.1,5,11.3,7.2c3.2,2.2,5.9,4.1,8.2,5.6c4.4,3.2,7.3,5,9.1,5.4
				c3.6,0.8,2.6-4.1,1.2-12.2c-3.1-15.6-7.1-28.8-11.1-40.2c-2.1-5.6-4.1-10.9-6.2-15.9c-2.2-4.8-4.2-9.5-6.4-13.7
				c-8.6-17-17.4-29.5-28.6-41.5c-18.2-19.6-36.8-27.8-50.8-28.1c-3.5-0.1-6.7,0.3-9.6,1.2c-2.9,0.9-5.5,2.2-7.7,3.8
				C1109.8,124.1,1106.9,128.7,1105.2,134.1z"/>
		</g>
		<g>
			<path class="st2" d="M1004.1,309.1c1.4,8.3,5.1,16,11.4,21.5c3.1,2.8,6.9,5,11.3,6.6c4.3,1.3,9.1,1.8,14.4,1.5
				c5.5-0.2,10.9-1.9,16.8-4.4c6-2.5,11.8-6.3,17.8-11.1c3.1-2.4,6-5.1,8.9-8.1s6-6.4,8.9-9.9s5.9-7.4,8.9-11.6
				c3-4.3,6-8.5,9.2-13.3c5.1-7.9,8.9-13.2,11.6-17.4c2.7-4.2,4.1-7,4.6-9c0.9-3.9-2.4-4.1-7.6-4.8c-5.1-0.6-10.1-1.4-14.6-1.6
				c-4.5-0.3-8.7-0.5-12.7-0.6c-8-0.2-14.6,0.1-20.9,0.6c-6,0.5-11.3,1.2-16.4,2.3c-5,1-9.6,2.3-14.4,4
				c-15.3,5.1-24.5,13.2-30.6,22.7C1004.9,285.7,1002.2,297.8,1004.1,309.1z"/>
		</g>
		<g>
			<path class="st2" d="M982.7,85.6c-3.3,7.5-4.5,16.5-3.3,25.7c0.6,4.6,1.6,9.3,3.3,13.8c0.8,2.3,1.6,4.5,2.6,6.7
				c0.5,1.1,1,2.2,1.6,3.3c0.5,1.1,1,2.2,1.6,3.2c4.6,8.5,10.2,16,19,25.9c0.6,0.6,1.1,1.2,1.7,1.8c0.6,0.7,1.1,1,2,2.4
				c0.9,1.2,1.8,2.4,2.6,3.5c0.9,1.1,1.8,2.1,2.7,3.2c3.6,4,7.3,7.6,11.2,10.9c7.8,6.7,16.4,12.6,25.6,19
				c7.5,5.2,12.6,9.3,16.1,12.7c1.8,1.7,3,3.2,4.3,4.5c1,1.3,1.8,2.3,2.6,3c1.4,1.3,2.4,1,3.2-1.1c0.4-1,0.8-2.7,1-4.3
				c0.1-1.6,0.3-3.7,0.3-5.7c0-8.2-0.9-15.1-1.8-21.6s-2.1-12.2-3.2-17.6c-2.2-10.7-4.5-19.6-6.6-27.3s-3.9-14.1-4.9-18.9
				c0-0.2-0.3-0.9-0.5-1.3l-0.6-1.5l-1.1-3c-0.8-2-1.6-4-2.4-6c-1.6-4-3.7-7.6-5.8-11.5c-7.1-12.3-15.6-21.8-23.6-27.3
				c-4-3-7.8-4.8-11.5-6.3c-3.6-1.5-7-2.1-10.2-2.3c-6.3-0.6-11.6,1.1-16,3.9C988.3,76.4,985,80.5,982.7,85.6z"/>
		</g>
		<g>
			<path class="st2" d="M860.6,301.6c2.2,8.1,6.9,15.1,15.1,19.2c3.9,1.8,8.8,2.9,14.2,2.9c5.2-0.2,11.3-1.3,17.2-3.9
				c12.2-5.1,25.1-15.6,36.4-31.4c5.7-7.8,11-17,15.9-27.4s9.4-22,13.7-34.9c6.9-20.8,10.3-30.4,10.2-34.6c-0.1-4.2-3.6-2.7-9.4-0.5
				c-11.2,4.4-20.7,8.8-28.9,12.7c-8.2,4-15.2,7.5-21.4,11c-12.3,6.8-21.5,12.9-30.8,20c-15.1,11.7-23.2,21.8-28.2,32.8
				c-1.2,2.6-2.2,5.7-3.1,8.4c-0.8,2.7-1.4,5.6-1.8,8.4C859,290.2,859.2,296.1,860.6,301.6z"/>
		</g>
		<g>
			<path class="st2" d="M786.7,53.4c-7.8,14.2-5.9,36.1,10.7,58.1c2.1,2.7,4.4,5.5,6.9,8.2s5.2,5.3,8.1,7.9
				c5.9,5.2,12.7,10.3,20.5,15.1c4,2.4,8,4.6,12.7,7c1.4,0.7,2.8,1.4,4.2,2.1c1.3,0.6,2.5,1.1,3.7,1.6c2.5,1,5,1.9,7.5,2.8
				c10.1,3.5,20.8,6.1,32.4,9.2c18.7,5,26.8,10.5,30.4,10.9c1.8,0.2,2.4-0.9,2.2-3.1c-0.1-1.1-0.4-2.5-0.8-4.1
				c-0.5-1.6-1.1-3.3-1.7-5.3c-5.6-15.3-12.5-27.1-18.5-37c-6.1-9.9-11.8-17.9-16.8-24.9c-1.3-1.7-2.5-3.4-3.7-5
				c-0.6-0.8-1.2-1.6-1.8-2.3l-0.8-1.1l-0.6-0.9l-1.3-1.8l-1.7-2.2c-1.2-1.5-2.3-3-3.5-4.5c-4.7-5.8-9.5-11.2-14.7-16.5
				c-17.3-17.5-32.5-25.4-45.3-27.1C801.9,38.8,791.9,43.8,786.7,53.4z"/>
		</g>
		<g>
			<path class="st2" d="M734.3,250.9c1.8,8.2,5.8,15.6,12.8,20.5c3.4,2.3,7.5,3.9,12.3,4.6c4.5,0.4,9.9,0.2,15.1-1.6
				c10.7-3.3,22-11.5,31.4-24c4.8-6.3,9.2-13.5,13.3-21.8s7.9-17.5,12-27.9c6.7-16.7,11.1-24.2,11.4-28.2c0.5-4-2.7-3.8-8-3.8
				c-10.3,0.3-19.4,1.8-27,3.6c-3.9,0.9-7.4,1.8-10.8,2.8c-3.3,1-6.3,1.9-9.2,3c-11.4,4.1-19.6,8.4-27.6,13.5
				c-13,8.3-18.9,16.5-22.7,26.5c-1.9,5.1-3.1,10.2-3.8,15.8C733,239.5,733.1,245.4,734.3,250.9z"/>
		</g>
		<g>
			<path class="st2" d="M625.3,66.2c-1.3,8.4-0.5,17.4,1.7,25.3c1.1,4.2,2.6,8.1,4.5,11.7c1.9,3.8,4.3,7.2,7.2,10.6
				c5.8,6.6,13.9,12.4,25.5,17.8c11.6,5.3,26.7,10.2,46.3,15.5c15.9,4.4,23.5,7.1,26.7,6.3c3.2-0.7,2-4.5,0.2-10.6
				c-7.2-24-14.5-41-21.8-54.3c-7.4-13.3-15.1-22.9-25-31.6c-16.2-14.4-33-18.2-45-15c-5.9,1.5-10.8,4.9-14.2,9.1
				C628.2,55.4,626.2,60.6,625.3,66.2z"/>
		</g>
		<g>
			<path class="st2" d="M579.6,292.4c5.9,4.7,13,7.1,20.3,6.9c3.7-0.1,7.4-0.9,11.1-2.4c3.8-1.6,7.6-3.9,11.4-7.2
				c3.7-3.2,7.5-7.5,11.1-12.8c3.6-5.2,7.2-11.9,10.5-19.5c1.6-3.8,3.2-8,4.7-12.6s2.9-9.4,4.2-14.5c2.4-10.7,4.5-22.2,5.1-35.5
				c0.8-10.4,0.4-18.2-0.1-23.6c-0.4-5.4-1.1-8.5-1.9-10.1c-1.7-3.2-4.2-0.6-8.2,3c-7.6,7.2-15,12.3-20.9,17
				c-6.3,4.6-11.8,8.5-16.4,12.3c-5,3.8-9.2,7.4-13.1,11.2c-4.1,3.9-7.7,7.9-11.3,12.4c-12.1,14.9-18,30.8-18.6,44.5
				C566.9,275.3,571.7,286.1,579.6,292.4z"/>
		</g>
		<g>
			<path class="st2" d="M437.7,148.7c0.4,8.5,3.1,16.9,7.6,24c2.3,3.5,5,6.7,8.1,9.5c3.2,2.9,6.9,5.4,11.1,7.3
				c16.8,7.7,41.8,7.1,82.1-6.3c16.3-5.5,23.9-8.2,26.4-11c2.4-2.7-0.3-5.1-4.4-9.1c-8.2-8-15.4-14.7-22-20.4s-12.6-10.3-18.2-14.2
				c-5.7-3.8-11-6.9-16.3-9.5c-5.4-2.5-10.7-4.4-16.4-6c-18.8-4.9-34.2-1.8-44.1,5.7C441.5,126.1,437.1,137.2,437.7,148.7z"/>
		</g>
		<g>
			<path class="st2" d="M1428,270.8c-41.5,18.4-153.3,42.4-389.8-54c-191.5-78-475-69.5-551.6,16.7l-8-10.6
				c38.9-43.8,127.4-70.6,242.7-73.6c111-2.9,230.9,17.2,320.8,53.8c302.7,123.4,398.1,45.1,399,44.3l7,11.6
				C1447,259.9,1440.9,265.1,1428,270.8z"/>
		</g>
		<g>
			<path class="st2" d="M409.5,349.9c14.1,2.7,29-7.3,40-23.7c1.5-2,2.9-4.1,4.1-6.5c1.4-2.2,2.8-4.5,4-7.2c1.4-2.5,2.7-5.1,4-8.1
				c0.7-1.4,1.4-2.9,2.1-4.4c0.4-0.8,0.7-1.6,1-2.4c0.4-0.8,0.8-1.6,1.2-2.4c2.9-6.7,6.7-14.3,11.1-23.4s10.1-19.4,16.3-31.3
				c10.3-19.1,15.5-28.2,15.8-32.3c0.5-4.1-3.3-3.3-9.3-2.3c-23.5,3.9-41.3,9-56.2,17c-14.8,8-26.7,18.8-37.1,33.9
				c-8.4,12.5-13.4,25.5-16,37c-1.3,5.7-1.8,11.2-2.1,16.1c-0.2,5,0.3,9.5,0.9,13.5s1.7,7.6,3,10.7s2.9,5.8,4.7,8
				C400.5,346.4,404.8,349,409.5,349.9z"/>
		</g>
	</g>
</g>
<g class="st1">
	<g>
		<g>
			<path class="st2" d="M7.6,2763.8l-5.9-6.3c0.8-1,78.6-106,217.9-198c128.5-84.9,337.3-175.8,602-127.2l-1.2,9.4
				c-262.4-48.2-469.3,41.9-596.8,126C85.5,2658.8,8.4,2762.8,7.6,2763.8z"/>
		</g>
		<path class="st2" d="M21.3,2737.6c0,0,7.6,18.1,19.6,37.6c5.9,10.7,13,21.3,21.6,31.6c8.6,10.6,18.6,19.7,31,27.2
			c4.4,2.6,9.3,4.8,14.6,7c5.4,2.3,11.1,4.4,17,6.4c11.7,4,24.8,7.7,37.1,11.6c12.5,3.8,24.8,7.5,35.3,12.3
			c10.9,4.2,20,9.5,26.6,16.9c0,0-1.3-5.9-4-15.2s-6.7-21.5-11.9-35c-2.6-6.9-5.5-14-8.9-20.9c-3.3-6.9-7.1-13.8-11.4-20.8
			c-4.3-6.8-9.2-13.3-14.7-19.2c-5.6-6.1-11.9-11.5-18.9-16.1c-6.9-4.5-14.5-8.4-21.6-11.5c-7.2-3.2-14.4-5.6-21.7-7.4
			c-7.2-1.8-14.2-3-20.9-3.9c-6.8-0.8-13.4-0.8-19.5-0.8s-11.7,0.2-16.9,0.5c-5.3,0.6-10.1,1.1-14.3,1.6
			C30.9,2740.2,24.8,2740.1,21.3,2737.6z"/>
		<path class="st2" d="M28.5,2727.1c0,0,11.2-13.1,23.4-27.5c3.3-4,6.6-8.2,9.8-12.8c3.4-5,6.5-10,9.4-16.2
			c2.9-6.4,5.6-12.7,7.5-20.9c1-4,1.9-8,2.5-12.3c0.5-4.6,0.9-9.2,1-13.9c0.4-6.6-0.7-14.1-1.7-21.5c-0.3-1.8-0.6-3.7-0.9-5.6
			c-0.3-1.6-0.7-3-1.1-4.5c-0.8-3-1.6-6-2.4-9.1c-1.7-6.2-3.6-12.3-5.6-18.9c-2-6.6-4-13.2-6-19.6c-3.8-13-7.8-25.8-9.8-37.4
			c-2.5-11.7-3.4-22.4-1.6-31.7c0,0-3.5,3.9-8.7,10.6c-5.2,6.7-11.8,16-18.7,27c-13.7,22.3-27.4,49.9-25.4,84.9
			c1,12.1,3.5,23.7,5.6,37.5c1.3,6.7,2.3,14,3.8,20.6c1.4,7.1,2.9,13.7,4.5,20.2c1.7,6.5,3.3,12.4,5,17.9c1.8,5.4,3.5,10.3,4.9,14.6
			C27.1,2716.9,29.4,2722.9,28.5,2727.1z"/>
		<path class="st2" d="M111,2646.4c0,0,7.5,19,22.2,41.1c7.3,11.1,16.5,22.8,27.3,33.7c10.7,11,23.2,20.9,37.6,27.7
			c5.1,2.5,10.8,4.5,16.8,6.5c5.9,2.1,12.1,4.1,18.6,5.9c12.9,3.7,26.7,7,40.2,10.8c26.5,8.2,51.5,18.6,64.6,35
			c0,0-3.6-24-15.7-53.5c-3-7.4-6.6-15.1-10.8-22.8c-4.1-7.8-8.9-15.5-14.5-22.6c-11.1-14.3-24.8-27.4-41.2-36.7
			c-16.5-9.1-33.1-13.9-48.6-17.2c-7.8-1.6-15.3-2.7-22.5-3.4c-7.2-0.6-14.2-0.7-20.7-0.8C138.1,2650,118.7,2652.4,111,2646.4z"/>
		<path class="st2" d="M141.2,2626.2c0,0,3.2-3.1,8.1-7.9c4.5-4.8,11.8-11.3,18.9-18.7c14.7-15.1,33.2-35.2,41.8-70.1
			c13-53.2-7.9-130,8.1-165.5c0,0-17.2,10.7-35.5,30.2s-37.8,46.4-44,79.1c-6,30-7.7,66.3-4.8,95.2c0.8,7.3,1.6,14,2.5,20.1
			c1.1,6.1,2.1,11.7,2.9,16.6C141,2614.8,142.6,2621.7,141.2,2626.2z"/>
		<path class="st2" d="M231.4,2557.3c0,0,0.5,4.5,2.7,12.3c1.1,3.8,2.5,8.8,4.7,13.7c2.2,4.8,4.9,10.2,8.3,15.9
			c3.4,5.6,7.2,10.7,11.7,16.2c4.5,5.4,8.9,10,14.1,14.6c5,4.5,9.9,8.3,15.3,11.7c2.4,1.6,4.9,3.1,7.5,4.4c1.3,0.7,2.6,1.3,4,1.8
			c1.2,0.6,2.4,1.1,3.6,1.6c1.7,0.7,3.6,1.3,5.5,1.8c1.7,0.4,3.5,0.9,5.4,1.3c1.7,0.4,3.5,0.7,5.4,1c1,0.2,1.9,0,3,0.6
			c1.1,0.5,2.2,1,3.3,1.6c4.6,2,9.4,4.1,14.2,6.2c2.5,0.9,5.1,2.5,7.7,4s5.2,3,7.8,4.5c10.2,5.8,20.5,13,28.9,20.2
			c8.6,7.3,15.8,15,20,23.9c0,0,0.3-6,0.2-15.5c-0.1-9.6-0.5-22-1.9-36.5c-0.7-7.2-1.7-14.7-3.2-22.3s-3.9-15.7-6.8-23.5
			c-1.5-3.9-3.1-7.8-4.9-11.7c-2.2-4-4.7-8-7.4-11.8c-5.7-7.7-10.7-15.2-20.7-21.2c-18.6-12.6-33.8-14.4-47.8-15.4
			c-13.7-0.3-25.6,1.8-36.2,3.4c-10.7,1.9-19.9,2.9-27.8,2.9C240.1,2562.5,234.2,2560.5,231.4,2557.3z"/>
		<path class="st2" d="M265.9,2532.5c0,0,3.9-0.6,10.6-3.7c6.4-3.1,15.5-9.2,24.2-18.5c17.8-18.6,34.1-49.4,37.7-81.6
			c1.4-11.6,1.1-24.1,0.9-37.1c0-1.7,0-3.3-0.1-5v-5.7c0-3.8,0-7.7,0-11.5c-0.1-7.8-0.2-15.7-0.3-23.3c-0.3-15.8-0.7-31.3-1.3-45.4
			c0-7-0.6-13.8-0.2-20c0-6.3,0.2-12.2,1.3-17.7c0,0-3.5,4.6-8.9,11.7c-2.6,3.5-6,7.6-9.6,12c-3.5,4.4-7.7,9-11.9,13.8
			c-8.5,9.6-17.5,19.4-25.8,31.8c-4.1,6.1-8,13.3-11.2,20.7c-0.8,1.9-1.6,3.8-2.3,5.7c-0.8,2.3-1.6,4.6-2.3,6.9
			c-1.5,4.6-2.6,9.8-3.5,14.8c-3.3,20-3.1,37.6-1.8,53.7c1.4,16,3.9,30.5,5.9,43.5s3.7,24.8,3.6,34.4c0,4.9-0.5,9.1-1.2,12.7
			C268.6,2528,267.4,2530.7,265.9,2532.5z"/>
		<path class="st2" d="M358.1,2498.4c0,0,2.1,4.1,5.3,10.4c1.5,2.9,3.3,6.9,5.2,11.1c1,2.1,1.9,4.2,3,6.4c1,2.4,2.1,4.8,3.2,7.3
			c9,19.6,20.4,43,40.6,59.1c14.4,11.3,36.6,21.2,56.8,34.1c20.1,12.6,38.3,28.7,42,46.5c0,0,1.7-5.1,3.4-14.1
			c1.6-9,2.9-22,2.1-36.8c-1.2-29.7-10.6-67-35.9-91c-25.1-24-55-32.7-78.6-34.3c-5.8-0.5-11.5-0.4-16.6-0.1
			c-5,0.1-9.6,0.8-13.6,1.3c-2,0.2-3.8,0.4-5.5,0.6c-1.7,0.2-3.3,0.5-4.7,0.6C362.1,2499.6,359.9,2499.4,358.1,2498.4z"/>
		<path class="st2" d="M390.3,2478.1c0,0,3.5,0.5,10-0.6c1.6-0.3,3.5-0.6,5.4-1.2c1.8-0.6,3.7-1.4,5.9-2.4c4.2-1.9,9.1-4.6,13.5-8.2
			c18.7-14.2,36.3-43.5,37.6-75.3c1.2-22.9-6-50.6-12.6-75.6c-6.5-25.1-12.2-48.4-7.1-64.7c0,0-3.8,3-9.5,8.5s-13.1,13.7-20.6,23.5
			c-14.9,19.9-29.5,45.9-30.1,74.2c-0.5,28.6,6.5,52.7,10.6,74.9c2,11,3.2,21.3,2.6,29.7c-0.1,2.1-0.2,4.2-0.6,6
			c-0.4,1.7-0.9,3.3-1.4,4.8C393,2474.6,391.7,2476.8,390.3,2478.1z"/>
		<path class="st2" d="M491.4,2456.2c0,0,2.1,4,5.5,10c3.4,5.8,7.8,14.4,12.6,23.1c4.7,9.1,9.8,18.5,15.4,27.6
			c5.8,8.7,12.2,17.5,20.9,24.1c12.2,9.6,32.1,19.1,49.9,33.2c17.8,13.8,33.1,31.7,35.1,49.7c0,0,2.1-4.9,4.7-13.4
			c2.6-8.5,5.5-20.6,6.7-35c1.2-14.3,0.8-30.9-3.3-47.4c-4-16.5-11.5-33.1-23.9-46.1c-12.3-13-26.2-21.9-40.1-26.9
			c-13.7-5.3-27.3-6.4-38.8-6C513,2450.2,498,2459.7,491.4,2456.2z"/>
		<path class="st2" d="M509.6,2437c0,0,3.6-0.6,9.6-2.9c3-1.1,6.6-2.7,10.3-4.9c3.8-2.2,8.2-4.9,12.3-8.3
			c17.1-13.4,35.3-38.2,39.2-69.6c2.9-22.4-1.5-51.4-6-77.8c-4.4-26.6-8.5-50.7-3.1-67.8c0,0-3.9,3.1-9.7,8.6s-13.7,13.1-21.7,22.3
			c-16.1,18.5-32.7,42-36,70.8c-3.1,29.1,1.5,56.2,5,80C513,2410.9,514.5,2430.7,509.6,2437z"/>
		<path class="st2" d="M648.9,2437.8c0,0-0.5,17.2,2.1,37c2.5,20.3,7.8,42.9,22.1,57.9c2.6,2.7,5.7,5.1,9,7.6s6.9,5,10.8,7.5
			c7.8,4.8,15.9,10.1,23.9,15.6c7.9,5.5,15,11.8,20.8,18.4c5.4,6.8,9.2,14,10,21.5c0,0,2.2-4.5,4.9-12.2c2.7-7.6,6.2-18.6,8.2-31.1
			c1.8-12.4,2.9-27,0.7-40.7c-1.1-6.9-2.7-13.9-5.3-20.4c-2.6-6.4-6.1-12.5-10.4-18c-17.7-21.5-40.6-30.4-59.5-34
			c-4.7-1-9.2-1.7-13.2-2.3c-4.1-0.5-7.9-1-11.2-1.5C655.2,2442,650.7,2440.7,648.9,2437.8z"/>
		<path class="st2" d="M648.6,2425.7c0,0,13.5-1.6,29.5-10.6c7.6-4.5,16-10.8,22.9-19c6.8-8.1,12.6-18.3,15.2-29.9
			c4-16.9,2.2-39.8,2.3-61.5c0.1-10.7,0.8-21,2.5-29.9c2-8.6,5.2-15.8,10-20.1c0,0-4.2-0.3-11,0.4c-6.7,0.6-16.1,2.1-26,5.8
			c-19.5,7.2-41.6,23.7-48.3,49.3c-6.9,25.4-3.2,50.9,0,71.9c0.9,5.3,1.7,10.4,2.5,15.1c0.7,4.6,1.2,8.9,1.6,12.7
			C650.6,2417.4,650.5,2423.1,648.6,2425.7z"/>
		<path class="st2" d="M777.3,2427.5c0,0,1.7,3.9,4.7,9.8c2.9,6,7,13.5,11.7,21.6c9.5,16.9,21,33.9,38,41.6c3.1,1.3,6.6,2.1,10.3,3
			c3.6,1,7.6,1.9,11.8,2.6c8.6,1.2,17.3,3.4,26.2,5.9c4.6,1.1,8.6,3,12.6,4.9s7.8,4.1,11.2,6.5c6.3,5.3,11.1,11.7,13,18.7
			c0,0,1.6-4.7,3.1-12.9c0.8-4.1,1.5-9,2-14.7c0.5-5.6,0.9-12.2,0.4-18.6c-0.4-6.5-1.3-13.4-2.8-20.6c-0.8-3.5-1.6-7.3-2.7-10.7
			c-1.2-3.4-2.5-6.8-4-10.1c-3-6.6-6.7-13.3-11.2-18.9c-4.7-5.4-10-10.3-16.1-14.1c-24.8-14.5-50.8-12.9-70.2-6.4
			c-4.9,1.5-9.3,3.2-13.3,4.7c-4,1.7-7.7,3.6-10.9,5C784.7,2427.6,780.2,2429.1,777.3,2427.5z"/>
	</g>
	<g class="st3">
		<g>
			<path class="st2" d="M347.2,2442c-5.6-5.2-13.1-7.4-21.9-5.7c-4.4,0.8-9.1,2.6-14,5.5c-4.9,3-9.9,7-15.1,12.2
				c-10.3,10.5-21,25.8-30.7,47c-2.5,5.2-4.8,10.9-7,17c-2.2,6-4.4,12.4-6.5,19.1c-3.9,13.7-7.7,28.6-10.2,45.3
				c-2.2,13.3-3.2,23.2-3.7,30.1c-0.5,6.9-0.4,11,0.2,13.1c1.2,4.2,4.4,0.4,9.6-5.1c9.9-10.9,19.1-19.6,26.8-27.5
				c7.9-7.8,14.8-14.5,20.9-20.9c6.3-6.3,11.7-12.2,16.7-18.2c5.2-5.9,10-12,14.7-18.5c15.8-21.4,24.7-41,27.7-57.3
				C357.7,2461.9,354.7,2449,347.2,2442z"/>
		</g>
		<g>
			<path class="st2" d="M375.7,2749.2c3.8-7.2,5.4-16.1,4.2-25.7c-1.2-9.7-5.1-19.9-11.9-29.7c-1.6-2.4-3.5-4.9-5.5-7.2
				c-1-1.2-2.1-2.4-3.2-3.5c-1-1.2-2.1-2.4-3.3-3.5c-1.2-1.2-2.4-2.3-3.6-3.5c-1.2-1-2.9-2.6-3.3-2.7c-0.1,0.1-2.6-2.5-4.2-3.8
				c-1.7-1.5-3.4-3-5.2-4.3c-7-5.4-14.6-10.1-23.1-14.8c-8.5-4.6-17.9-9-28-13.8c-8.1-3.9-13.7-7.3-17.2-10.4
				c-1.9-1.5-3.2-3.2-4.2-4.5c-0.4-0.6-0.8-1.2-1.2-1.7c-0.3-0.5-0.6-0.8-0.9-1.1c-1.2-1-2.3-0.5-3.4,1.5s-1.7,5.5-1.5,9.9
				c0.3,4.7,1,8.7,1.8,12.4c0.8,3.8,1.7,7.1,2.6,10.4c1.9,6.5,3.8,12.2,5.8,17.5c3.9,10.5,7.8,19.2,11.5,26.9
				c3.7,7.6,7.4,14.2,11.1,20.1c1.8,3,3.7,5.8,5.5,8.4c0.8,1.2,1.7,2.5,2.5,3.8c0.4,0.6,2.4,3.7,4.2,5.5c1.1,1.2,2.2,2.4,3.2,3.6
				c1,1.1,2,2.1,3,3.2c2,2.1,4,4,6,5.7c3.9,3.3,7.8,6.1,11.5,8.3c7.4,4.4,14.2,6.5,20.3,7.1C361.1,2764.4,370.6,2758.9,375.7,2749.2
				z"/>
		</g>
		<g>
			<path class="st2" d="M493.5,2522.9c-3.6-7.3-9.3-13.2-16.6-16.4c-3.7-1.6-7.7-2.6-12.1-2.8s-9.3,0.4-14.4,1.9
				c-10.3,3.1-21.9,9.9-34.4,22.2c-3.1,3-6.2,6.5-9.4,10.3c-3.1,3.8-6.3,7.9-9.5,12.4c-6.2,9.3-12.5,19.6-17.9,32.2
				c-4.6,9.8-7.2,17.5-8.9,23c-1.7,5.4-2.3,8.8-2.1,10.8c0.3,4,3.8,2.5,9.1,0.8c10.2-3.7,19.4-5.8,27.2-7.9
				c7.9-1.9,14.8-3.5,20.9-5.3c6.3-1.6,11.8-3.4,17.1-5.5c5.4-2,10.5-4.3,15.6-7.1c17.2-9,28.6-21,34.4-33.4
				C498.3,2545.4,498.3,2532.9,493.5,2522.9z"/>
		</g>
		<g>
			<path class="st2" d="M522.8,2762.1c2.4-8.1,2.3-17.3-0.1-26.4c-2.4-9.4-7.1-18.6-14.6-28.1c-7.5-9.4-17.9-18.8-31.9-28.5
				c-7.1-4.8-14.8-9.9-23.8-15c-8.8-5.3-18.6-10.8-29.4-17.2c-4.2-2.7-8.1-5-11.3-7.2c-3.2-2.2-5.9-4-8.2-5.6
				c-4.4-3.2-7.3-5-9.1-5.4c-3.6-0.8-2.6,4.1-1.2,12.2c3.1,15.6,7.1,28.8,11.1,40.2c2.1,5.6,4.1,10.9,6.2,15.9
				c2.2,4.8,4.2,9.5,6.4,13.7c8.6,17,17.4,29.5,28.6,41.4c18.2,19.6,36.8,27.8,50.8,28.1c3.5,0.1,6.7-0.3,9.6-1.2s5.5-2.2,7.7-3.8
				C518.2,2772.1,521.2,2767.5,522.8,2762.1z"/>
		</g>
		<g>
			<path class="st2" d="M623.9,2587.1c-1.4-8.3-5.1-16-11.4-21.5c-3.1-2.8-6.9-5-11.3-6.6c-4.3-1.3-9.1-1.8-14.4-1.5
				c-5.5,0.2-10.9,1.9-16.8,4.4c-6,2.5-11.8,6.3-17.8,11.1c-3.1,2.4-6,5.1-8.9,8.1s-6,6.4-8.9,9.9s-5.9,7.4-8.9,11.6
				c-3,4.3-6,8.5-9.2,13.3c-5.1,7.9-8.9,13.2-11.6,17.4s-4.1,7-4.6,9c-0.9,3.9,2.4,4.1,7.6,4.8c5.1,0.6,10.1,1.4,14.6,1.6
				c4.5,0.3,8.7,0.5,12.7,0.6c8,0.2,14.6-0.1,20.9-0.6c6-0.5,11.3-1.2,16.4-2.3c5-1,9.6-2.3,14.4-4c15.3-5.1,24.5-13.2,30.6-22.7
				C623.1,2610.5,625.8,2598.4,623.9,2587.1z"/>
		</g>
		<g>
			<path class="st2" d="M645.3,2810.6c3.3-7.5,4.5-16.5,3.3-25.7c-0.6-4.6-1.6-9.3-3.3-13.8c-0.8-2.3-1.6-4.5-2.6-6.8
				c-0.5-1.1-1-2.2-1.6-3.3c-0.5-1.1-1-2.2-1.6-3.2c-4.6-8.5-10.2-16-19-25.9c-0.6-0.6-1.1-1.2-1.7-1.8c-0.6-0.7-1.1-1-2-2.4
				c-0.9-1.2-1.8-2.4-2.6-3.5c-0.9-1.1-1.8-2.1-2.7-3.2c-3.6-4-7.3-7.6-11.2-10.9c-7.8-6.7-16.4-12.6-25.6-19
				c-7.5-5.2-12.6-9.3-16.1-12.7c-1.8-1.7-3-3.2-4.3-4.5c-1-1.3-1.8-2.3-2.6-3c-1.4-1.3-2.4-1-3.2,1.1c-0.4,1-0.8,2.7-1,4.3
				c-0.1,1.6-0.3,3.7-0.3,5.7c0,8.2,0.9,15.1,1.8,21.6c0.9,6.5,2.1,12.2,3.2,17.6c2.2,10.7,4.5,19.6,6.6,27.3s3.9,14.1,4.9,18.9
				c0,0.2,0.3,0.9,0.5,1.3l0.6,1.5l1.1,3c0.8,2,1.6,4,2.4,6c1.6,4,3.7,7.6,5.8,11.5c7.1,12.3,15.6,21.8,23.6,27.3
				c4,3,7.8,4.8,11.5,6.3c3.6,1.5,7,2.1,10.2,2.3c6.3,0.6,11.6-1.1,16-3.9C639.7,2819.8,643,2815.7,645.3,2810.6z"/>
		</g>
		<g>
			<path class="st2" d="M767.4,2594.6c-2.2-8.1-6.9-15.1-15.1-19.2c-3.9-1.8-8.8-2.9-14.2-2.9c-5.2,0.2-11.3,1.3-17.2,3.9
				c-12.2,5.1-25.1,15.6-36.4,31.4c-5.7,7.9-11,17-15.9,27.4s-9.4,22-13.7,34.9c-6.9,20.8-10.3,30.4-10.2,34.6
				c0.1,4.2,3.6,2.7,9.4,0.5c11.2-4.4,20.7-8.8,28.9-12.7c8.2-4,15.2-7.5,21.4-10.9c12.3-6.8,21.5-12.9,30.8-20
				c15.1-11.7,23.2-21.8,28.2-32.8c1.2-2.7,2.2-5.7,3.1-8.4c0.8-2.7,1.4-5.6,1.8-8.4C769,2606,768.9,2600.1,767.4,2594.6z"/>
		</g>
		<g>
			<path class="st2" d="M841.3,2842.8c7.8-14.2,5.9-36.1-10.7-58.1c-2.1-2.7-4.4-5.5-6.9-8.2s-5.2-5.3-8.1-7.9
				c-5.9-5.2-12.7-10.3-20.5-15.1c-4-2.4-8-4.6-12.7-7c-1.4-0.7-2.8-1.4-4.2-2.1c-1.3-0.6-2.5-1.1-3.7-1.6c-2.5-1-5-1.9-7.5-2.8
				c-10.1-3.5-20.8-6.1-32.4-9.2c-18.7-5-26.8-10.5-30.4-10.9c-1.8-0.2-2.4,0.9-2.2,3.1c0.1,1.1,0.4,2.5,0.8,4.1
				c0.5,1.6,1.1,3.3,1.7,5.3c5.6,15.3,12.5,27.1,18.5,37c6.1,9.9,11.8,17.9,16.8,24.9c1.3,1.7,2.5,3.4,3.7,5
				c0.6,0.8,1.2,1.6,1.8,2.3l0.8,1.1l0.6,0.9l1.3,1.8l1.7,2.2c1.2,1.5,2.3,3,3.5,4.5c4.7,5.8,9.5,11.2,14.7,16.5
				c17.3,17.5,32.5,25.4,45.3,27.1C826.1,2857.4,836.1,2852.4,841.3,2842.8z"/>
		</g>
		<g>
			<path class="st2" d="M893.7,2645.3c-1.8-8.2-5.8-15.6-12.8-20.5c-3.4-2.3-7.5-3.9-12.3-4.6c-4.5-0.4-9.9-0.2-15.1,1.6
				c-10.7,3.3-22,11.5-31.5,24c-4.8,6.3-9.1,13.5-13.3,21.8c-4.1,8.3-7.9,17.5-12,27.9c-6.7,16.7-11.1,24.2-11.4,28.2
				c-0.5,3.9,2.7,3.8,8,3.8c10.3-0.3,19.4-1.8,27-3.6c3.9-0.9,7.4-1.8,10.8-2.8c3.3-1,6.3-1.9,9.2-3c11.4-4.1,19.6-8.4,27.6-13.5
				c13-8.3,18.9-16.5,22.7-26.5c1.9-5.1,3.2-10.2,3.8-15.8C895.1,2656.7,895,2650.8,893.7,2645.3z"/>
		</g>
		<g>
			<path class="st2" d="M1002.7,2830c1.3-8.4,0.5-17.4-1.7-25.3c-1.1-4.2-2.6-8.1-4.5-11.7c-1.9-3.8-4.3-7.2-7.2-10.6
				c-5.8-6.6-13.9-12.4-25.5-17.8c-11.6-5.3-26.7-10.2-46.3-15.5c-15.9-4.4-23.5-7.1-26.7-6.3c-3.2,0.7-2,4.5-0.2,10.6
				c7.2,24,14.5,41,21.8,54.3c7.4,13.3,15.1,22.9,25,31.6c16.2,14.4,33,18.2,45,15c5.9-1.5,10.8-4.9,14.2-9.1
				C999.9,2840.8,1001.9,2835.6,1002.7,2830z"/>
		</g>
		<g>
			<path class="st2" d="M1048.4,2603.8c-5.9-4.7-13-7.1-20.3-6.9c-3.7,0.1-7.4,0.9-11.1,2.4c-3.8,1.6-7.6,3.9-11.4,7.2
				c-3.7,3.2-7.5,7.5-11.1,12.8c-3.6,5.2-7.2,11.9-10.5,19.5c-1.6,3.8-3.2,8-4.7,12.6s-2.9,9.3-4.2,14.5
				c-2.4,10.7-4.5,22.2-5.1,35.5c-0.8,10.4-0.4,18.2,0.1,23.6c0.4,5.4,1.1,8.5,1.9,10.1c1.7,3.2,4.2,0.6,8.2-3
				c7.6-7.2,15-12.3,20.9-17c6.3-4.6,11.8-8.5,16.4-12.3c5-3.8,9.2-7.4,13.1-11.2c4.1-3.9,7.7-7.9,11.3-12.4
				c12.1-14.9,18-30.8,18.6-44.5C1061.2,2620.9,1056.4,2610.1,1048.4,2603.8z"/>
		</g>
		<g>
			<path class="st2" d="M1190.3,2747.5c-0.4-8.5-3.1-16.9-7.6-24c-2.3-3.5-5-6.7-8.1-9.5c-3.2-2.9-6.9-5.4-11.1-7.3
				c-16.8-7.7-41.8-7.1-82.1,6.3c-16.3,5.5-23.9,8.2-26.4,11c-2.4,2.7,0.3,5.1,4.4,9.1c8.2,8,15.4,14.7,22,20.4s12.6,10.3,18.2,14.2
				c5.7,3.8,11,6.9,16.3,9.5c5.4,2.5,10.7,4.4,16.4,6c18.8,4.9,34.2,1.8,44.1-5.7C1186.5,2770.1,1190.9,2759,1190.3,2747.5z"/>
		</g>
		<g>
			<path class="st2" d="M200,2625.4c41.5-18.4,153.3-42.4,389.8,54c191.5,78,475,69.5,551.6-16.7l8,10.6
				c-38.9,43.8-127.4,70.6-242.7,73.6c-111,2.9-230.9-17.2-320.8-53.8c-302.7-123.4-398.1-45.1-399-44.3l-7-11.6
				C181,2636.3,187.1,2631.1,200,2625.4z"/>
		</g>
		<g>
			<path class="st2" d="M1218.5,2546.3c-14.1-2.7-29,7.3-40,23.7c-1.5,2-2.9,4.1-4.1,6.5c-1.4,2.2-2.8,4.5-4,7.2
				c-1.4,2.5-2.7,5.1-4,8.1c-0.7,1.4-1.4,2.9-2.1,4.4c-0.4,0.8-0.7,1.6-1,2.4c-0.4,0.8-0.8,1.6-1.2,2.4c-2.9,6.7-6.7,14.3-11.1,23.4
				c-4.4,9.1-10.1,19.4-16.3,31.3c-10.3,19.1-15.5,28.2-15.8,32.3c-0.5,4.2,3.3,3.3,9.3,2.3c23.5-3.9,41.3-9,56.2-17
				c14.8-8,26.7-18.8,37.1-33.9c8.4-12.5,13.4-25.5,16-37c1.3-5.7,1.8-11.2,2.1-16.1c0.2-5-0.3-9.5-0.9-13.5
				c-0.6-4.1-1.7-7.6-3-10.7c-1.3-3.1-2.9-5.8-4.7-8C1227.5,2549.7,1223.2,2547.2,1218.5,2546.3z"/>
		</g>
	</g>
</g>
</svg>
